<svg width="24" height="24" viewBox="0 0 24 24" fill="none" xmlns="http://www.w3.org/2000/svg">
<path fill-rule="evenodd" clip-rule="evenodd" d="M15.24 22.27H15.11C10.67 22.27 8.53001 20.52 8.16001 16.6C8.12001 16.19 8.42001 15.82 8.84001 15.78C9.24001 15.74 9.62001 16.05 9.66001 16.46C9.95001 19.6 11.43 20.77 15.12 20.77H15.25C19.32 20.77 20.76 19.33 20.76 15.26V8.73998C20.76 4.66998 19.32 3.22998 15.25 3.22998H15.12C11.41 3.22998 9.93001 4.41998 9.66001 7.61998C9.61001 8.02998 9.26001 8.33998 8.84001 8.29998C8.42001 8.26998 8.12001 7.89998 8.15001 7.48998C8.49001 3.50998 10.64 1.72998 15.11 1.72998H15.24C20.15 1.72998 22.25 3.82998 22.25 8.73998V15.26C22.25 20.17 20.15 22.27 15.24 22.27Z" fill="#3BE6AF"/>
<path fill-rule="evenodd" clip-rule="evenodd" d="M15.0001 12.75H3.62012C3.21012 12.75 2.87012 12.41 2.87012 12C2.87012 11.59 3.21012 11.25 3.62012 11.25H15.0001C15.4101 11.25 15.7501 11.59 15.7501 12C15.7501 12.41 15.4101 12.75 15.0001 12.75Z" fill="#3BE6AF"/>
<path fill-rule="evenodd" clip-rule="evenodd" d="M5.85043 16.0994C5.66043 16.0994 5.47043 16.0294 5.32043 15.8794L1.97043 12.5294C1.68043 12.2394 1.68043 11.7594 1.97043 11.4694L5.32043 8.11936C5.61043 7.82936 6.09043 7.82936 6.38043 8.11936C6.67043 8.40936 6.67043 8.88936 6.38043 9.17936L3.56043 11.9994L6.38043 14.8194C6.67043 15.1094 6.67043 15.5894 6.38043 15.8794C6.24043 16.0294 6.04043 16.0994 5.85043 16.0994Z" fill="#3BE6AF"/>
</svg>
