<svg width="21" height="21" viewBox="0 0 21 21" fill="none" xmlns="http://www.w3.org/2000/svg">
<path fill-rule="evenodd" clip-rule="evenodd" d="M21 5.24999C21 4.67009 20.5299 4.19999 19.95 4.19999H18.9V1.05C18.9 0.470097 18.4299 0 17.85 0H3.14999C2.57009 0 2.1 0.470097 2.1 1.05V4.19999H1.05C0.470097 4.19999 0 4.67009 0 5.24999V19.95C0 20.5299 0.470097 21 1.05 21H19.95C20.5299 21 21 20.5299 21 19.95L21 5.24999ZM4.19999 2.09999H16.8V4.19998H4.19999V2.09999ZM18.9 18.9H2.1V6.29999H18.9V18.9ZM12.6 7.61249C12.0201 7.61249 11.55 8.08259 11.55 8.66249V11.4807C11.2137 11.3563 10.8585 11.291 10.5 11.2875C8.7603 11.2875 7.34999 12.6978 7.34999 14.4375C7.34999 16.1772 8.76029 17.5875 10.5 17.5875C12.2397 17.5875 13.65 16.1772 13.65 14.4375V8.66249C13.65 8.08259 13.1799 7.61249 12.6 7.61249H12.6ZM10.5 15.4875C9.92009 15.4875 9.44999 15.0174 9.44999 14.4375C9.44999 13.8576 9.92009 13.3875 10.5 13.3875C11.0799 13.3875 11.55 13.8576 11.55 14.4375C11.55 15.0174 11.0799 15.4875 10.5 15.4875Z" fill="white"/>
</svg>
