<svg width="140" height="115" viewBox="0 0 140 115" fill="none" xmlns="http://www.w3.org/2000/svg">
<mask id="mask0_0_3082" style="mask-type:alpha" maskUnits="userSpaceOnUse" x="0" y="0" width="140" height="115">
<path fill-rule="evenodd" clip-rule="evenodd" d="M0 0H140V114.919H0V0Z" fill="white"/>
</mask>
<g mask="url(#mask0_0_3082)">
<path fill-rule="evenodd" clip-rule="evenodd" d="M36.7886 85.0558L37.3673 83.7569C38.089 84.3356 39.2336 84.7472 40.3397 84.7472C41.743 84.7472 42.3346 84.2456 42.3346 83.5768C42.3346 81.6333 36.9829 82.9066 36.9829 79.5612C36.9829 78.1093 38.139 76.8732 40.6098 76.8732C41.6915 76.8732 42.8233 77.1562 43.6064 77.6706L43.0791 78.9696C42.2703 78.4938 41.3829 78.2623 40.5969 78.2623C39.2079 78.2623 38.642 78.8024 38.642 79.4855C38.642 81.4018 43.9808 80.1529 43.9808 83.4611C43.9808 84.9015 42.8105 86.1362 40.3397 86.1362C38.9378 86.1362 37.5345 85.6989 36.7886 85.0558" fill="#060124"/>
<path fill-rule="evenodd" clip-rule="evenodd" d="M45.7919 81.5052C45.7919 78.843 47.8497 76.8752 50.642 76.8752C53.4329 76.8752 55.4921 78.8301 55.4921 81.5052C55.4921 84.1818 53.4329 86.1367 50.642 86.1367C47.8497 86.1367 45.7919 84.1689 45.7919 81.5052ZM53.8073 81.5052C53.8073 79.6661 52.4569 78.3414 50.642 78.3414C48.8286 78.3414 47.4767 79.6661 47.4767 81.5052C47.4767 83.3458 48.8286 84.6705 50.642 84.6705C52.4569 84.6705 53.8073 83.3458 53.8073 81.5052Z" fill="#060124"/>
<path fill-rule="evenodd" clip-rule="evenodd" d="M58.062 77.0022H59.734V84.5932H64.4426V86.0079H58.062L58.062 77.0022Z" fill="#060124"/>
<path fill-rule="evenodd" clip-rule="evenodd" d="M66.3569 82.0838V77.0022H68.0289V82.0195C68.0289 83.873 68.8663 84.6704 70.3182 84.6704C71.7729 84.6704 72.596 83.873 72.596 82.0195V77.0022H74.2437V82.0838C74.2437 84.7089 72.7632 86.1365 70.3067 86.1365C67.836 86.1365 66.3569 84.7089 66.3569 82.0838Z" fill="#060124"/>
<path fill-rule="evenodd" clip-rule="evenodd" d="M79.0384 78.417H76.0546V77.0022H83.6971V78.417H80.7118V86.0079H79.0384V78.417Z" fill="#060124"/>
<path fill-rule="evenodd" clip-rule="evenodd" d="M85.7528 77.0027H87.4248V86.0084H85.7528V77.0027Z" fill="#060124"/>
<path fill-rule="evenodd" clip-rule="evenodd" d="M90.0089 81.5052C90.0089 78.843 92.0667 76.8752 94.859 76.8752C97.6499 76.8752 99.7091 78.8301 99.7091 81.5052C99.7091 84.1818 97.6499 86.1367 94.859 86.1367C92.0667 86.1367 90.0089 84.1689 90.0089 81.5052ZM98.0229 81.5052C98.0229 79.6661 96.6724 78.3414 94.859 78.3414C93.0456 78.3414 91.6937 79.6661 91.6937 81.5052C91.6937 83.3458 93.0456 84.6705 94.859 84.6705C96.6724 84.6705 98.0229 83.3458 98.0229 81.5052Z" fill="#060124"/>
<path fill-rule="evenodd" clip-rule="evenodd" d="M110.281 77.0022V86.0079H108.904L103.94 79.9089V86.0079H102.278V77.0022H103.656L108.621 83.1013V77.0022H110.281Z" fill="#060124"/>
<path fill-rule="evenodd" clip-rule="evenodd" d="M33.631 111.844V90.7127C35.08 90.6398 36.3404 90.5226 37.6008 90.5198C59.5063 90.4598 81.4118 90.4498 103.317 90.3212C106.014 90.3054 108.822 90.0511 111.378 89.2623C116.7 87.6175 119.378 81.9128 118.222 75.5522C117.367 70.8564 112.793 67.3124 107.179 67.2696C96.4637 67.1881 85.7489 67.2267 75.0341 67.2381C62.0542 67.251 51.0393 62.9196 44.2758 51.4232C37.0721 39.1778 38.2238 26.6867 45.309 14.5972C45.6048 14.0956 45.8834 13.5826 46.1478 13.0639C46.1864 12.9867 46.1035 12.8481 45.9592 12.2565C44.9631 12.3279 43.8356 12.2479 42.791 12.5065C20.9212 17.914 8.17292 32.1885 4.72897 53.9439C3.87584 59.3314 3.93729 65.3633 5.49207 70.5206C8.31439 79.8779 5.6907 89.1094 7.09257 98.6309C3.08702 97.795 0.59337 95.6185 0.250409 92.479C-0.29405 87.4974 0.106075 82.4144 0.904903 77.3299C1.04209 80.468 1.17927 83.6076 1.31646 86.7472C1.57798 86.7272 1.84091 86.7086 2.10243 86.6886C2.10243 77.3227 3.09703 67.8155 1.79947 58.6325C0.683403 50.7286 2.84408 44.1322 5.6907 37.4001C9.02319 29.5248 14.1119 22.7826 20.3453 16.9622C30.2385 7.72643 42.1251 2.38046 55.4364 0.982866C65.2138 -0.0431764 75.1312 0.10402 84.9887 0.0411431C101.655 -0.0674607 118.322 0.068299 134.989 0.112595C136.155 0.115457 137.32 0.211193 138.707 0.27407V22.3368C137.282 22.3368 135.906 22.3353 134.53 22.3368C113.815 22.3482 93.0998 22.3311 72.3847 22.3854C65.8312 22.4025 62.1914 26.0351 61.1397 33.3302C60.4652 38.0103 63.8277 43.1905 68.7307 44.4823C71.1086 45.1083 73.6565 45.2769 76.1316 45.3112C87.0707 45.4669 98.0314 45.1225 108.949 45.6641C125.586 46.4915 138.104 57.4507 139.745 74.3461C140.802 85.2295 138.746 94.914 130.523 102.568C124.112 108.537 116.384 111.769 107.59 111.808C84.4942 111.909 61.3969 111.844 38.301 111.844L33.631 111.844Z" fill="#060124"/>
<path fill-rule="evenodd" clip-rule="evenodd" d="M16.2107 84.8882C16.2064 77.5187 16.185 70.1493 16.2136 62.7812C16.2336 57.5567 18.3514 55.2417 22.9986 55.2517C28.1545 55.2631 30.1494 57.3023 30.1694 62.7126C30.2223 77.4201 30.2852 92.1291 30.2566 106.838C30.2452 112.933 28.236 115.028 22.9186 114.915C18.2499 114.818 16.2922 112.92 16.2379 108.066C16.1521 100.34 16.215 92.6135 16.2107 84.8882" fill="#060124"/>
<path fill-rule="evenodd" clip-rule="evenodd" d="M14.6222 62.1932V107.536C10.7053 108.572 8.94187 107.498 8.9133 103.801C8.81755 91.4567 8.81041 79.1114 8.87185 66.7661C8.89043 62.9434 10.2894 61.8831 14.6222 62.1932" fill="#060124"/>
</g>
</svg>
