<svg width="140" height="115" viewBox="0 0 140 115" fill="none" xmlns="http://www.w3.org/2000/svg">
<mask id="mask0_0_3256" style="mask-type:alpha" maskUnits="userSpaceOnUse" x="0" y="0" width="140" height="115">
<path fill-rule="evenodd" clip-rule="evenodd" d="M0 0H140V114.919H0V0Z" fill="white"/>
</mask>
<g mask="url(#mask0_0_3256)">
<path fill-rule="evenodd" clip-rule="evenodd" d="M36.7887 85.0558L37.3674 83.7568C38.0891 84.3355 39.2337 84.7471 40.3398 84.7471C41.7431 84.7471 42.3347 84.2455 42.3347 83.5767C42.3347 81.6332 36.983 82.9065 36.983 79.5612C36.983 78.1093 38.1391 76.8732 40.6099 76.8732C41.6916 76.8732 42.8234 77.1561 43.6065 77.6706L43.0792 78.9696C42.2704 78.4937 41.3829 78.2622 40.597 78.2622C39.208 78.2622 38.6421 78.8024 38.6421 79.4854C38.6421 81.4018 43.9809 80.1528 43.9809 83.461C43.9809 84.9014 42.8105 86.1361 40.3398 86.1361C38.9379 86.1361 37.5346 85.6988 36.7886 85.0558" fill="#060124"/>
<path fill-rule="evenodd" clip-rule="evenodd" d="M45.792 81.5052C45.792 78.8429 47.8498 76.8751 50.6421 76.8751C53.433 76.8751 55.4922 78.83 55.4922 81.5052C55.4922 84.1817 53.433 86.1366 50.6421 86.1366C47.8498 86.1366 45.792 84.1689 45.792 81.5052ZM53.8074 81.5052C53.8074 79.666 52.4569 78.3413 50.6421 78.3413C48.8286 78.3413 47.4768 79.666 47.4768 81.5052C47.4768 83.3457 48.8286 84.6704 50.6421 84.6704C52.4569 84.6704 53.8074 83.3457 53.8074 81.5052Z" fill="#060124"/>
<path fill-rule="evenodd" clip-rule="evenodd" d="M58.0619 77.0021H59.7338V84.5931H64.4425V86.0078H58.0619L58.0619 77.0021Z" fill="#060124"/>
<path fill-rule="evenodd" clip-rule="evenodd" d="M66.3568 82.0838V77.0021H68.0287V82.0195C68.0287 83.8729 68.8661 84.6703 70.318 84.6703C71.7727 84.6703 72.5959 83.8729 72.5959 82.0195V77.0021H74.2435V82.0838C74.2435 84.7089 72.7631 86.1365 70.3066 86.1365C67.8358 86.1365 66.3568 84.7089 66.3568 82.0838Z" fill="#060124"/>
<path fill-rule="evenodd" clip-rule="evenodd" d="M79.0381 78.4169H76.0543V77.0021H83.6967V78.4169H80.7115V86.0078H79.0381V78.4169Z" fill="#060124"/>
<path fill-rule="evenodd" clip-rule="evenodd" d="M85.7529 77.0026H87.4248V86.0083H85.7529V77.0026Z" fill="#060124"/>
<path fill-rule="evenodd" clip-rule="evenodd" d="M90.0088 81.5052C90.0088 78.8429 92.0666 76.8751 94.8589 76.8751C97.6498 76.8751 99.709 78.83 99.709 81.5052C99.709 84.1817 97.6498 86.1366 94.8589 86.1366C92.0666 86.1366 90.0088 84.1689 90.0088 81.5052ZM98.0228 81.5052C98.0228 79.666 96.6723 78.3413 94.8589 78.3413C93.0455 78.3413 91.6936 79.666 91.6936 81.5052C91.6936 83.3457 93.0455 84.6704 94.8589 84.6704C96.6723 84.6704 98.0228 83.3457 98.0228 81.5052Z" fill="#060124"/>
<path fill-rule="evenodd" clip-rule="evenodd" d="M110.28 77.0021V86.0079H108.904L103.94 79.9088V86.0079H102.278V77.0021H103.655L108.621 83.1012V77.0021H110.28Z" fill="#060124"/>
<path fill-rule="evenodd" clip-rule="evenodd" d="M33.6309 111.844V90.7126C35.08 90.6397 36.3404 90.5226 37.6008 90.5197C59.5062 90.4597 81.4117 90.4497 103.317 90.3211C106.014 90.3054 108.822 90.051 111.378 89.2622C116.7 87.6174 119.378 81.9127 118.222 75.5521C117.367 70.8564 112.793 67.3124 107.178 67.2695C96.4636 67.1881 85.7488 67.2267 75.034 67.2381C62.0542 67.251 51.0393 62.9196 44.2757 51.4231C37.072 39.1778 38.2238 26.6867 45.3089 14.5972C45.6047 14.0956 45.8834 13.5826 46.1478 13.0639C46.1863 12.9867 46.1035 12.8481 45.9591 12.2565C44.9631 12.3279 43.8356 12.2479 42.791 12.5065C20.9212 17.9139 8.17291 32.1885 4.72896 53.9439C3.87583 59.3313 3.93729 65.3632 5.49206 70.5205C8.31438 79.8778 5.6907 89.1093 7.09257 98.6308C3.08702 97.7949 0.59337 95.6185 0.250409 92.4789C-0.29405 87.4973 0.106074 82.4143 0.904902 77.3298C1.04209 80.468 1.17927 83.6075 1.31646 86.7471C1.57798 86.7271 1.84091 86.7085 2.10242 86.6885C2.10242 77.3227 3.09703 67.8154 1.79947 58.6325C0.683403 50.7286 2.84408 44.1322 5.6907 37.4001C9.02318 29.5247 14.1119 22.7826 20.3453 16.9622C30.2385 7.72643 42.1251 2.38045 55.4364 0.982865C65.2138 -0.0431763 75.1312 0.10402 84.9886 0.041143C101.655 -0.0674606 118.322 0.0682989 134.989 0.112595C136.155 0.115457 137.319 0.211193 138.707 0.27407V22.3367C137.282 22.3367 135.906 22.3353 134.53 22.3367C113.815 22.3482 93.0997 22.331 72.3846 22.3853C65.8311 22.4025 62.1914 26.0351 61.1396 33.3302C60.4651 38.0103 63.8276 43.1905 68.7306 44.4823C71.1085 45.1082 73.6564 45.2768 76.1315 45.3111C87.0707 45.4669 98.0313 45.1225 108.949 45.6641C125.586 46.4915 138.104 57.4507 139.744 74.346C140.802 85.2295 138.746 94.9139 130.523 102.568C124.112 108.537 116.384 111.769 107.59 111.808C84.4941 111.909 61.3969 111.844 38.301 111.844L33.6309 111.844Z" fill="#060124"/>
<path fill-rule="evenodd" clip-rule="evenodd" d="M16.2108 84.8881C16.2065 77.5187 16.1851 70.1492 16.2137 62.7812C16.2337 57.5567 18.3515 55.2416 22.9987 55.2516C28.1546 55.2631 30.1495 57.3023 30.1695 62.7126C30.2224 77.4201 30.2853 92.129 30.2567 106.838C30.2453 112.933 28.2361 115.028 22.9187 114.915C18.25 114.818 16.2923 112.92 16.238 108.065C16.1522 100.34 16.2151 92.6134 16.2108 84.8881" fill="#060124"/>
<path fill-rule="evenodd" clip-rule="evenodd" d="M14.6224 62.1931V107.536C10.7054 108.572 8.94199 107.497 8.91341 103.801C8.81766 91.4567 8.81052 79.1113 8.87197 66.766C8.89055 62.9434 10.2896 61.883 14.6224 62.1931" fill="#060124"/>
</g>
</svg>
