<svg width="9" height="9" viewBox="0 0 9 9" fill="none" xmlns="http://www.w3.org/2000/svg">
<path fill-rule="evenodd" clip-rule="evenodd" d="M4.49992 0C3.86511 0 3.26705 0.11541 2.72241 0.343027C2.17719 0.57087 1.69646 0.890669 1.29354 1.29353C0.890679 1.69641 0.57087 2.17713 0.343016 2.72233C0.11541 3.26703 0 3.86507 0 4.49983C0 5.12706 0.11541 5.72129 0.343016 6.26599C0.570902 6.81121 0.890679 7.29193 1.29354 7.69478C1.69671 8.0979 2.17743 8.4196 2.72241 8.65097C3.2674 8.88235 3.86547 8.99966 4.49992 8.99966C5.1269 8.99966 5.72114 8.88235 6.26614 8.65097C6.81116 8.41959 7.29187 8.09789 7.69497 7.69478C8.09806 7.29172 8.41979 6.811 8.65118 6.26599C8.88258 5.72096 8.99988 5.12673 8.99988 4.49983C8.99988 3.8654 8.88257 3.26737 8.65118 2.72233C8.41983 2.17738 8.09811 1.69667 7.69497 1.29353C7.29208 0.890669 6.81135 0.570881 6.26614 0.343027C5.72149 0.11541 5.12726 0 4.49992 0ZM2.5762 3.32407C2.48661 3.32407 2.40893 3.26986 2.34535 3.16295C2.28193 3.05559 2.24978 2.92919 2.24978 2.78722C2.24978 2.63305 2.28194 2.50338 2.34535 2.40181C2.40918 2.3009 2.49067 2.24971 2.58754 2.24971H6.42366C6.51304 2.24971 6.59055 2.30393 6.6541 2.41084C6.71778 2.51795 6.75009 2.64459 6.75009 2.78723C6.75009 2.94119 6.7178 3.07064 6.6541 3.17199C6.59068 3.27292 6.50932 3.32409 6.41232 3.32409L2.5762 3.32407ZM3.1941 5.76575C3.1888 5.76575 3.18344 5.76563 3.17803 5.76544C3.08492 5.76179 3.00735 5.72964 2.94756 5.66984C2.88038 5.60267 2.84632 5.52309 2.84632 5.43334C2.84632 5.34385 2.88038 5.26441 2.94756 5.19723L4.22979 3.90369C4.28617 3.84004 4.35857 3.80777 4.44495 3.80777C4.45014 3.80777 4.45533 3.80789 4.46064 3.80811C4.55408 3.81176 4.63546 3.84391 4.70245 3.90369L6.01868 5.20857C6.07861 5.26849 6.10695 5.34603 6.10291 5.43901C6.09931 5.53238 6.06715 5.61005 6.00733 5.66984C5.94018 5.73703 5.86072 5.7711 5.77124 5.7711C5.68175 5.7711 5.60229 5.73703 5.53512 5.66984L4.81503 4.96113V6.87347C4.81503 6.96287 4.78094 7.0404 4.71379 7.1039C4.64645 7.16759 4.56685 7.19989 4.47726 7.19989C4.38052 7.19989 4.29915 7.16759 4.23545 7.1039C4.17203 7.04048 4.13987 6.95913 4.13987 6.86213V4.96112L3.40888 5.68118C3.35238 5.73729 3.28012 5.76575 3.1941 5.76575Z" fill="#888888" fill-opacity="0.32"/>
</svg>
