<svg width="16" height="14" viewBox="0 0 16 14" fill="none" xmlns="http://www.w3.org/2000/svg">
<path fill-rule="evenodd" clip-rule="evenodd" d="M2.99991 1C2.99991 0.44772 2.55219 0 1.99991 0C1.44763 0 0.99991 0.44772 0.99991 1V8.268C0.38116 8.62528 0 9.2855 0 10C0 10.7145 0.38116 11.3747 0.99991 11.732V13C0.99991 13.5523 1.44763 14 1.99991 14C2.55219 14 2.99991 13.5523 2.99991 13V11.732C3.61866 11.3747 3.99982 10.7145 3.99982 10C3.99982 9.28551 3.61866 8.62528 2.99991 8.268V1ZM8.99991 1C8.99991 0.44772 8.55219 0 7.99991 0C7.44762 0 6.99991 0.44772 6.99991 1V2.268C6.38116 2.62528 6 3.2855 6 4C6 4.7145 6.38116 5.37472 6.99991 5.732V13C6.99991 13.5523 7.44762 14 7.99991 14C8.55219 14 8.99991 13.5523 8.99991 13V5.732C9.61866 5.37472 9.99982 4.71449 9.99982 4C9.99982 3.2855 9.61866 2.62528 8.99991 2.268V1ZM13.9999 0C14.5522 0 14.9999 0.44772 14.9999 1V8.268C15.6187 8.62528 15.9998 9.28551 15.9998 10C15.9998 10.7145 15.6187 11.3747 14.9999 11.732V13C14.9999 13.5523 14.5522 14 13.9999 14C13.4476 14 12.9999 13.5523 12.9999 13V11.732C12.3812 11.3747 12 10.7145 12 10C12 9.28551 12.3812 8.62528 12.9999 8.268V1C12.9999 0.44772 13.4476 0 13.9999 0Z" fill="#060124"/>
</svg>
