<svg width="19" height="19" viewBox="0 0 19 19" fill="none" xmlns="http://www.w3.org/2000/svg">
<path fill-rule="evenodd" clip-rule="evenodd" d="M1 3C1 1.89543 1.89543 1 3 1H16C17.1046 1 18 1.89543 18 3V5.8C18 6.90457 17.1046 7.8 16 7.8H3C1.89543 7.8 1 6.90457 1 5.8V3Z" stroke="white" stroke-width="2" stroke-linecap="round" stroke-linejoin="round"/>
<path fill-rule="evenodd" clip-rule="evenodd" d="M1 13.2002C1 12.0956 1.89543 11.2002 3 11.2002H16C17.1046 11.2002 18 12.0956 18 13.2002V16.0002C18 17.1048 17.1046 18.0002 16 18.0002H3C1.89543 18.0002 1 17.1048 1 16.0002V13.2002Z" stroke="white" stroke-width="2" stroke-linecap="round" stroke-linejoin="round"/>
<path d="M4.40039 4.3999H5.40039" stroke="white" stroke-width="2" stroke-linecap="round" stroke-linejoin="round"/>
<path d="M4.40039 14.6001H5.40039" stroke="white" stroke-width="2" stroke-linecap="round" stroke-linejoin="round"/>
</svg>
