<svg width="21" height="22" viewBox="0 0 21 22" fill="none" xmlns="http://www.w3.org/2000/svg">
<path fill-rule="evenodd" clip-rule="evenodd" d="M13.4443 21.6765H7.55607C7.07048 21.6765 6.6768 21.2829 6.67666 20.7973V15.7034C6.67666 13.5914 8.38877 11.8793 10.5008 11.8793C12.6127 11.8793 14.3249 13.5914 14.3249 15.7034V20.7973C14.3248 21.0307 14.232 21.2545 14.0668 21.4194C13.9016 21.5843 13.6777 21.6768 13.4443 21.6765ZM8.43412 19.9179H12.5642V15.7034C12.5647 14.5627 11.6399 13.6379 10.4992 13.6379C9.35842 13.6379 8.43367 14.5627 8.43367 15.7034L8.43412 19.9179Z" fill="white"/>
<path fill-rule="evenodd" clip-rule="evenodd" d="M17.5985 21.6774H3.40127C2.91568 21.6774 2.52198 21.2838 2.52186 20.7982V12.004H0.87895C0.528561 12.0039 0.211694 11.7958 0.0724371 11.4743C-0.0668198 11.1527 -0.00185858 10.7792 0.237759 10.5236L9.85813 0.266133C10.028 0.0957545 10.2586 0 10.4992 0C10.7398 0 10.9705 0.0957648 11.1403 0.266133L20.7618 10.5236C21.0016 10.7792 21.0667 11.1528 20.9274 11.4744C20.7882 11.796 20.4711 12.0042 20.1206 12.004H18.4777V20.7982C18.4776 21.2837 18.084 21.6772 17.5985 21.6774ZM4.28045 19.9188H16.7191V11.1246C16.7192 10.639 17.1129 10.2454 17.5985 10.2454H18.0907L10.4998 2.15296L2.90884 10.2454H3.40126C3.88677 10.2456 4.28032 10.6391 4.28045 11.1246V19.9188Z" fill="white"/>
</svg>
