<svg width="105" height="86" viewBox="0 0 105 86" fill="none" xmlns="http://www.w3.org/2000/svg">
<mask id="mask0_0_7809" style="mask-type:alpha" maskUnits="userSpaceOnUse" x="0" y="0" width="105" height="86">
<path fill-rule="evenodd" clip-rule="evenodd" d="M0 0H104.77V86.0002H0V0Z" fill="white"/>
</mask>
<g mask="url(#mask0_0_7809)">
<path fill-rule="evenodd" clip-rule="evenodd" d="M27.5305 63.6526L27.9636 62.6805C28.5037 63.1136 29.3603 63.4216 30.188 63.4216C31.2382 63.4216 31.6809 63.0463 31.6809 62.5458C31.6809 61.0914 27.6759 62.0442 27.6759 59.5407C27.6759 58.4542 28.5411 57.5291 30.3901 57.5291C31.1997 57.5291 32.0466 57.7409 32.6327 58.1259L32.2381 59.098C31.6328 58.7419 30.9687 58.5686 30.3805 58.5686C29.341 58.5686 28.9175 58.9729 28.9175 59.484C28.9175 60.9181 32.9129 59.9835 32.9129 62.4591C32.9129 63.5371 32.037 64.4611 30.188 64.4611C29.1389 64.4611 28.0887 64.1339 27.5305 63.6526" fill="#3BE6AF"/>
<path fill-rule="evenodd" clip-rule="evenodd" d="M34.2689 60.995C34.2689 59.0027 35.8088 57.5301 37.8985 57.5301C39.987 57.5301 41.5281 58.9931 41.5281 60.995C41.5281 62.9981 39.987 64.461 37.8985 64.461C35.8088 64.461 34.2689 62.9884 34.2689 60.995ZM40.2672 60.995C40.2672 59.6187 39.2566 58.6273 37.8985 58.6273C36.5414 58.6273 35.5297 59.6187 35.5297 60.995C35.5297 62.3724 36.5414 63.3638 37.8985 63.3638C39.2566 63.3638 40.2672 62.3724 40.2672 60.995Z" fill="#3BE6AF"/>
<path fill-rule="evenodd" clip-rule="evenodd" d="M43.4513 57.625H44.7025V63.3057H48.2262V64.3645H43.4513L43.4513 57.625Z" fill="#3BE6AF"/>
<path fill-rule="evenodd" clip-rule="evenodd" d="M49.6587 61.4278V57.625H50.9099V61.3797C50.9099 62.7667 51.5366 63.3635 52.6232 63.3635C53.7118 63.3635 54.3278 62.7667 54.3278 61.3797V57.625H55.5608V61.4278C55.5608 63.3924 54.4529 64.4607 52.6146 64.4607C50.7656 64.4607 49.6587 63.3924 49.6587 61.4278" fill="#3BE6AF"/>
<path fill-rule="evenodd" clip-rule="evenodd" d="M59.1491 58.6837H56.9162V57.625H62.6354V58.6837H60.4014V64.3644H59.1491L59.1491 58.6837Z" fill="#3BE6AF"/>
<path fill-rule="evenodd" clip-rule="evenodd" d="M64.1736 57.6255H65.4248V64.3649H64.1736V57.6255Z" fill="#3BE6AF"/>
<path fill-rule="evenodd" clip-rule="evenodd" d="M67.3579 60.995C67.3579 59.0027 68.8979 57.5301 70.9875 57.5301C73.0761 57.5301 74.6171 58.9931 74.6171 60.995C74.6171 62.9981 73.0761 64.461 70.9875 64.461C68.8979 64.461 67.3579 62.9884 67.3579 60.995ZM73.3552 60.995C73.3552 59.6187 72.3446 58.6273 70.9875 58.6273C69.6305 58.6273 68.6188 59.6187 68.6188 60.995C68.6188 62.3724 69.6305 63.3638 70.9875 63.3638C72.3446 63.3638 73.3552 62.3724 73.3552 60.995Z" fill="#3BE6AF"/>
<path fill-rule="evenodd" clip-rule="evenodd" d="M82.5291 57.625V64.3645H81.4992L77.7841 59.8002V64.3645H76.5404V57.625H77.5713L81.2875 62.1893V57.625H82.5291Z" fill="#3BE6AF"/>
<path fill-rule="evenodd" clip-rule="evenodd" d="M25.1679 83.6986V67.8852C26.2523 67.8307 27.1955 67.743 28.1387 67.7408C44.5318 67.6959 60.9249 67.6884 77.3179 67.5922C79.3359 67.5804 81.4373 67.3901 83.3505 66.7997C87.333 65.5688 89.3371 61.2997 88.4719 56.5398C87.8324 53.0257 84.4092 50.3735 80.2075 50.3414C72.189 50.2805 64.1705 50.3093 56.152 50.3179C46.4385 50.3275 38.1955 47.0861 33.1339 38.4827C27.743 29.3189 28.605 19.9711 33.9071 10.9239C34.1285 10.5485 34.337 10.1646 34.5349 9.77637C34.5637 9.71863 34.5017 9.61488 34.3937 9.17215C33.6483 9.22561 32.8046 9.16573 32.0228 9.3593C15.6565 13.406 6.11623 24.0884 3.53894 40.3691C2.9005 44.4008 2.94649 48.9148 4.11001 52.7744C6.2221 59.7769 4.25866 66.6853 5.30775 73.8108C2.31018 73.1852 0.444049 71.5565 0.187395 69.207C-0.220055 65.479 0.0793841 61.6751 0.677186 57.8701C0.779851 60.2186 0.882517 62.5681 0.985182 64.9176C1.18089 64.9026 1.37766 64.8887 1.57336 64.8737C1.57336 57.8648 2.31767 50.75 1.34665 43.8779C0.511429 37.963 2.12839 33.0265 4.25866 27.9885C6.75254 22.095 10.5607 17.0495 15.2255 12.6937C22.6291 5.7821 31.5245 1.78142 41.4861 0.735536C48.803 -0.0323011 56.2248 0.0778443 63.6016 0.0307902C76.0742 -0.0504825 88.5468 0.0511058 101.019 0.0842571C101.892 0.0863914 102.764 0.15805 103.802 0.205104V16.7158C102.736 16.7158 101.706 16.7147 100.676 16.7158C85.1738 16.7244 69.6716 16.7115 54.1694 16.7522C49.265 16.765 46.5412 19.4835 45.7541 24.9428C45.2494 28.4452 47.7657 32.3218 51.4349 33.2885C53.2144 33.7569 55.1211 33.8831 56.9734 33.9088C65.1597 34.0254 73.3622 33.7676 81.5325 34.1729C93.9826 34.7921 103.351 42.9935 104.578 55.6372C105.37 63.7819 103.831 71.0293 97.6775 76.7571C92.8801 81.224 87.0967 83.643 80.5155 83.6719C63.2316 83.7478 45.9466 83.6986 28.6627 83.6986H25.1679Z" fill="#3BE6AF"/>
<path fill-rule="evenodd" clip-rule="evenodd" d="M12.1317 63.5255C12.1285 58.0105 12.1124 52.4956 12.1338 46.9816C12.1488 43.0719 13.7336 41.3394 17.2114 41.3469C21.0698 41.3555 22.5627 42.8815 22.5777 46.9303C22.6173 57.9367 22.6643 68.9442 22.6429 79.9517C22.6344 84.5128 21.1308 86.0805 17.1515 85.996C13.6577 85.9233 12.1926 84.5031 12.152 80.8704C12.0878 75.0891 12.1349 69.3068 12.1317 63.5255" fill="#3BE6AF"/>
<path fill-rule="evenodd" clip-rule="evenodd" d="M10.9426 46.5423V80.4749C8.01129 81.2502 6.69164 80.446 6.67024 77.6794C6.5986 68.4418 6.59324 59.2031 6.63923 49.9645C6.65313 47.1038 7.70009 46.3103 10.9426 46.5423" fill="#3BE6AF"/>
</g>
</svg>
