<svg width="16" height="17" viewBox="0 0 16 17" fill="none" xmlns="http://www.w3.org/2000/svg">
<path fill-rule="evenodd" clip-rule="evenodd" d="M6 2.00126C3.79086 2.00126 2 3.79212 2 6.00126C2 8.2104 3.79086 10.0013 6 10.0013C8.20914 10.0013 10 8.2104 10 6.00126C10 3.79212 8.20914 2.00126 6 2.00126ZM1.1581e-07 6.00126C1.1581e-07 3.4086 1.66433 1.1097 4.12665 0.30045C6.58814 -0.50888 9.29187 0.35413 10.8297 2.44049C12.3676 4.52685 12.3919 7.36486 10.89 9.47726L15.707 14.2943C16.0976 14.6847 16.0976 15.3178 15.7071 15.7084C15.3166 16.0989 14.6834 16.0989 14.2929 15.7084L9.477 10.8923C7.64704 12.1935 5.24367 12.364 3.2483 11.3342C1.25293 10.3044 -0.000439884 8.24669 1.1581e-07 6.00126Z" fill="#060124"/>
</svg>
