<svg width="9" height="12" viewBox="0 0 9 12" fill="none" xmlns="http://www.w3.org/2000/svg">
<path fill-rule="evenodd" clip-rule="evenodd" d="M4.17874 0.131253L0.132855 4.17852C-0.044285 4.3561 -0.044285 4.64385 0.132855 4.82189C0.309995 4.99947 0.597725 4.99947 0.774865 4.82189L4.49976 1.0956L8.22468 4.82143C8.40182 4.99901 8.68954 4.99901 8.86714 4.82143C9.04428 4.64385 9.04428 4.35567 8.86714 4.17806L4.82121 0.130823C4.6459 -0.0436769 4.35364 -0.0436769 4.17874 0.131253Z" fill="#454545"/>
<path fill-rule="evenodd" clip-rule="evenodd" d="M0.132855 6.75304C-0.044285 6.93063 -0.044285 7.21881 0.132855 7.3964L4.17874 11.4437C4.35364 11.619 4.64586 11.619 4.82121 11.4437L8.86714 7.3964C9.04428 7.21881 9.04428 6.93108 8.86714 6.75304C8.68999 6.57545 8.40227 6.57545 8.22513 6.75304L4.49977 10.4793L0.774865 6.75349C0.597725 6.57545 0.309995 6.57545 0.132855 6.75304Z" fill="#454545"/>
</svg>
