<svg width="12" height="12" viewBox="0 0 12 12" fill="none" xmlns="http://www.w3.org/2000/svg">
<path fill-rule="evenodd" clip-rule="evenodd" d="M10.5883 4.57142H7.42856V1.41171C7.42856 0.63542 6.77656 0 5.99999 0C5.22342 0 4.57142 0.63543 4.57142 1.41171V4.57142H1.41171C0.63542 4.57142 0 5.22342 0 5.99999C0 6.77656 0.63543 7.42856 1.41171 7.42856H4.57142V10.5883C4.57142 11.3646 5.22342 12 5.99999 12C6.77656 12 7.42856 11.3646 7.42856 10.5883V7.42856H10.5883C11.3646 7.42856 12 6.77656 12 5.99999C12 5.22342 11.3646 4.57142 10.5883 4.57142Z" fill="#3BE6AF"/>
</svg>
