<svg width="24" height="24" viewBox="0 0 24 24" fill="none" xmlns="http://www.w3.org/2000/svg">
<path fill-rule="evenodd" clip-rule="evenodd" d="M23.234 3.49091H17.8723V2.4C17.8723 1.07452 16.6149 0 15.0638 0H8.93615C7.38505 0 6.12764 1.07452 6.12764 2.4V3.49091H0.765968C0.342933 3.49091 0 3.78396 0 4.14547C0 4.50697 0.342933 4.80002 0.765968 4.80002H1.30725L2.91064 21.792C3.03708 23.0347 4.24924 23.9912 5.70893 24H18.291C19.7507 23.9912 20.9629 23.0347 21.0893 21.792L22.6927 4.80002H23.234C23.6571 4.80002 24 4.50697 24 4.14547C24 3.78396 23.6571 3.49091 23.234 3.49091H23.234ZM7.65967 2.72043C7.65967 1.94096 8.23121 1.30909 8.93627 1.30909H15.0639C15.769 1.30909 16.3405 1.94096 16.3405 2.72043V4.13178H7.6597L7.65967 2.72043ZM19.557 21.6872C19.499 22.2534 18.9455 22.6885 18.2804 22.6909H5.70854C5.04734 22.6841 4.49985 22.2501 4.44214 21.6872L2.80811 4.8H21.191L19.557 21.6872ZM18.622 9.38179V18.1091C18.622 18.4706 17.8826 18.7636 16.9704 18.7636C16.0583 18.7636 15.3188 18.4706 15.3188 18.1091V9.38179C15.3188 9.02029 16.0583 8.72723 16.9704 8.72723C17.8826 8.72723 18.622 9.02029 18.622 9.38179ZM14.5365 9.38179V18.1091C14.5365 18.4706 13.7971 18.7636 12.885 18.7636C11.9728 18.7636 11.2334 18.4706 11.2334 18.1091V9.38179C11.2334 9.02029 11.9728 8.72723 12.885 8.72723C13.7971 8.72723 14.5365 9.02029 14.5365 9.38179ZM10.4516 9.38179V18.1091C10.4516 18.4706 9.71216 18.7636 8.80001 18.7636C7.88787 18.7636 7.14844 18.4706 7.14844 18.1091V9.38179C7.14844 9.02029 7.88787 8.72723 8.80001 8.72723C9.71216 8.72723 10.4516 9.02029 10.4516 9.38179Z" fill="#595959"/>
</svg>
