<svg width="10" height="10" viewBox="0 0 10 10" fill="none" xmlns="http://www.w3.org/2000/svg">
<path fill-rule="evenodd" clip-rule="evenodd" d="M4.64323 0.111755L0.147619 3.55155C-0.0492064 3.70247 -0.0492064 3.94704 0.147619 4.09835C0.344445 4.24928 0.664172 4.24928 0.860997 4.09835L4.99994 0.931363L9.13888 4.09797C9.33571 4.24889 9.65543 4.24889 9.85275 4.09797C10.0496 3.94704 10.0496 3.70212 9.85275 3.55116L5.35711 0.111389C5.16231 -0.0369212 4.83757 -0.0369212 4.64323 0.111755Z" fill="#454545"/>
<path fill-rule="evenodd" clip-rule="evenodd" d="M0.147619 5.73913C-0.0492064 5.89007 -0.0492064 6.13499 0.147619 6.28593L4.64323 9.72573C4.83757 9.87476 5.16227 9.87476 5.35711 9.72573L9.85275 6.28593C10.0496 6.13499 10.0496 5.89045 9.85275 5.73913C9.65593 5.5882 9.33622 5.5882 9.13939 5.73913L4.99995 8.90609L0.860997 5.73951C0.664172 5.5882 0.344445 5.5882 0.147619 5.73912V5.73913Z" fill="#454545"/>
</svg>
