<svg width="19" height="19" viewBox="0 0 19 19" fill="none" xmlns="http://www.w3.org/2000/svg">
<path fill-rule="evenodd" clip-rule="evenodd" d="M15.2 19C17.2987 19 19 17.2987 19 15.2V0.949995C19 0.425328 18.5747 -1.04586e-05 18.05 1.92877e-10C17.5253 1.92877e-10 17.1 0.425328 17.1 0.950005V11.9282C16.5249 11.5863 15.869 11.4039 15.2 11.4C13.1013 11.4 11.4 13.1013 11.4 15.2C11.4 17.2987 13.1013 19 15.2 19V19ZM15.2 13.3C16.2493 13.3 17.1 14.1506 17.1 15.2C17.1 16.2493 16.2493 17.1 15.2 17.1C14.1507 17.1 13.3 16.2493 13.3 15.2C13.3 14.1506 14.1507 13.3 15.2 13.3ZM9.5 11.875H0.949995C0.425328 11.875 0 11.4497 0 10.925C0 10.4003 0.425328 9.97499 0.949995 9.97499H9.5C10.0247 9.97499 10.45 10.4003 10.45 10.925C10.45 11.4497 10.0247 11.875 9.5 11.875ZM8.55 16.15C9.07467 16.15 9.5 16.5753 9.5 17.1C9.5 17.6247 9.07467 18.05 8.55 18.05H0.950005C0.425339 18.05 1.04588e-05 17.6247 1.04588e-05 17.1C1.04588e-05 16.5753 0.425339 16.15 0.950005 16.15H8.55ZM14.25 5.69999H0.949995C0.425328 5.69999 0 5.27466 0 4.74998C0 4.22532 0.425328 3.79998 0.949995 3.79998H14.25C14.7747 3.79998 15.2 4.22531 15.2 4.74998C15.2 5.27465 14.7747 5.69999 14.25 5.69999Z" fill="white"/>
</svg>
