<svg width="394" height="39" viewBox="0 0 394 39" fill="none" xmlns="http://www.w3.org/2000/svg">
<path opacity="0.703738" d="M8.14473 1.15461V2.62964H4.98625V12.4738H3.14246V2.62964H9.79527e-06V1.15461H8.14473ZM14.4467 3.49542C15.4728 3.49542 16.2958 3.82676 16.9157 4.48946C17.5357 5.15215 17.8456 6.09809 17.8456 7.32728V12.4738H16.0179V7.51968C16.0179 6.72872 15.8148 6.11947 15.4086 5.69193C15.0025 5.25369 14.4467 5.03458 13.7412 5.03458C13.0144 5.03458 12.4319 5.26973 11.9936 5.74003C11.5554 6.19964 11.3363 6.87836 11.3363 7.77621V12.4738H9.50853V0.609493H11.3363V5.5797C11.5714 4.917 11.9669 4.40395 12.5227 4.04054C13.0785 3.67712 13.7198 3.49542 14.4467 3.49542ZM28.192 7.63191C28.192 7.93119 28.1706 8.19306 28.1279 8.41752H21.3299C21.362 9.32605 21.6132 9.99944 22.0835 10.4377C22.5538 10.8759 23.1363 11.095 23.8311 11.095C24.4403 11.095 24.9534 10.94 25.3702 10.6301C25.7978 10.3201 26.0596 9.90858 26.1558 9.39553H28.1118C27.9943 10.0155 27.7484 10.5659 27.3743 11.0469C27.0002 11.5279 26.5139 11.9074 25.9153 12.1853C25.3168 12.4525 24.6487 12.5861 23.9112 12.5861C23.0561 12.5861 22.2972 12.4044 21.6345 12.041C20.9825 11.6775 20.4695 11.1538 20.0954 10.4697C19.7213 9.78566 19.5342 8.97867 19.5342 8.04877C19.5342 7.12954 19.7213 6.3279 20.0954 5.64383C20.4695 4.95976 20.9825 4.43602 21.6345 4.0726C22.2972 3.70919 23.0561 3.52748 23.9112 3.52748C24.777 3.52748 25.5305 3.70919 26.1719 4.0726C26.8239 4.42533 27.3209 4.917 27.6629 5.54763C28.0156 6.16757 28.192 6.86233 28.192 7.63191ZM26.3482 7.58381C26.3696 7.00663 26.2681 6.52564 26.0436 6.14085C25.8298 5.74537 25.5305 5.45678 25.1458 5.27507C24.7717 5.08268 24.3601 4.98648 23.9112 4.98648C23.1951 4.98648 22.5965 5.2056 22.1155 5.64383C21.6345 6.08206 21.3727 6.72872 21.3299 7.58381H26.3482ZM37.7548 3.52748C38.6099 3.52748 39.3794 3.70919 40.0635 4.0726C40.7476 4.43602 41.282 4.95976 41.6668 5.64383C42.0516 6.3279 42.244 7.12954 42.244 8.04877C42.244 8.97867 42.0516 9.78566 41.6668 10.4697C41.282 11.1538 40.7476 11.6775 40.0635 12.041C39.3794 12.4044 38.6099 12.5861 37.7548 12.5861C36.8997 12.5861 36.1301 12.4044 35.446 12.041C34.7726 11.6775 34.2382 11.1538 33.8427 10.4697C33.4579 9.77498 33.2656 8.96799 33.2656 8.04877C33.2656 7.12954 33.4579 6.3279 33.8427 5.64383C34.2382 4.95976 34.7726 4.43602 35.446 4.0726C36.1301 3.70919 36.8997 3.52748 37.7548 3.52748ZM37.7548 5.11474C37.2845 5.11474 36.8516 5.22163 36.4561 5.4354C36.0606 5.64917 35.74 5.98052 35.4941 6.42944C35.259 6.86767 35.1414 7.40745 35.1414 8.04877C35.1414 8.70077 35.259 9.24589 35.4941 9.68412C35.74 10.1224 36.0606 10.4484 36.4561 10.6621C36.8516 10.8759 37.2845 10.9828 37.7548 10.9828C38.2251 10.9828 38.658 10.8759 39.0534 10.6621C39.4489 10.4484 39.7642 10.1224 39.9994 9.68412C40.2452 9.24589 40.3681 8.70077 40.3681 8.04877C40.3681 7.40745 40.2452 6.86767 39.9994 6.42944C39.7642 5.98052 39.4489 5.64917 39.0534 5.4354C38.658 5.22163 38.2251 5.11474 37.7548 5.11474ZM48.9394 3.49542C49.9655 3.49542 50.7885 3.82676 51.4084 4.48946C52.0284 5.15215 52.3383 6.09809 52.3383 7.32728V12.4738H50.5106V7.51968C50.5106 6.72872 50.3075 6.11947 49.9013 5.69193C49.4952 5.25369 48.9394 5.03458 48.2339 5.03458C47.5071 5.03458 46.9245 5.26973 46.4863 5.74003C46.0481 6.19964 45.829 6.87836 45.829 7.77621V12.4738H44.0012V3.63971H45.829V5.5797C46.0641 4.917 46.4596 4.40395 47.0154 4.04054C47.5712 3.67712 48.2125 3.49542 48.9394 3.49542ZM56.3036 0.609493V12.4738H54.4758V0.609493H56.3036ZM58.2589 1.07445C58.2589 0.764478 58.3657 0.507951 58.5795 0.304867C58.7933 0.101784 59.0765 0.000241776 59.4293 0.000241776C59.782 0.000241776 60.0652 0.101784 60.279 0.304867C60.5035 0.507951 60.6157 0.764478 60.6157 1.07445C60.6157 1.38442 60.5035 1.6356 60.279 1.82799C60.0652 2.02039 59.782 2.11659 59.4293 2.11659C59.0765 2.11659 58.7933 2.02039 58.5795 1.82799C58.3657 1.6356 58.2589 1.38442 58.2589 1.07445ZM60.3431 3.63971V12.4738H58.5154V3.63971H60.3431ZM67.4931 3.49542C68.5192 3.49542 69.3422 3.82676 69.9621 4.48946C70.5821 5.15215 70.892 6.09809 70.892 7.32728V12.4738H69.0643V7.51968C69.0643 6.72872 68.8612 6.11947 68.455 5.69193C68.0489 5.25369 67.4931 5.03458 66.7876 5.03458C66.0608 5.03458 65.4783 5.26973 65.04 5.74003C64.6018 6.19964 64.3827 6.87836 64.3827 7.77621V12.4738H62.5549V3.63971H64.3827V5.5797C64.6178 4.917 65.0133 4.40395 65.5691 4.04054C66.1249 3.67712 66.7662 3.49542 67.4931 3.49542ZM81.2384 7.63191C81.2384 7.93119 81.217 8.19306 81.1743 8.41752H74.3763C74.4084 9.32605 74.6596 9.99944 75.1299 10.4377C75.6002 10.8759 76.1827 11.095 76.8775 11.095C77.4867 11.095 77.9998 10.94 78.4166 10.6301C78.8442 10.3201 79.106 9.90858 79.2022 9.39553H81.1582C81.0407 10.0155 80.7948 10.5659 80.4207 11.0469C80.0466 11.5279 79.5603 11.9074 78.9617 12.1853C78.3632 12.4525 77.6951 12.5861 76.9576 12.5861C76.1025 12.5861 75.3436 12.4044 74.6809 12.041C74.0289 11.6775 73.5159 11.1538 73.1418 10.4697C72.7677 9.78566 72.5806 8.97867 72.5806 8.04877C72.5806 7.12954 72.7677 6.3279 73.1418 5.64383C73.5159 4.95976 74.0289 4.43602 74.6809 4.0726C75.3436 3.70919 76.1025 3.52748 76.9576 3.52748C77.8234 3.52748 78.5769 3.70919 79.2183 4.0726C79.8703 4.42533 80.3673 4.917 80.7093 5.54763C81.062 6.16757 81.2384 6.86233 81.2384 7.63191ZM79.3946 7.58381C79.416 7.00663 79.3145 6.52564 79.09 6.14085C78.8762 5.74537 78.5769 5.45678 78.1922 5.27507C77.8181 5.08268 77.4065 4.98648 76.9576 4.98648C76.2415 4.98648 75.6429 5.2056 75.1619 5.64383C74.6809 6.08206 74.4191 6.72872 74.3763 7.58381H79.3946ZM91.8273 3.52748C92.5969 3.52748 93.2809 3.70919 93.8795 4.0726C94.4887 4.43602 94.9644 4.95976 95.3064 5.64383C95.6484 6.3279 95.8195 7.12954 95.8195 8.04877C95.8195 8.97867 95.6484 9.78566 95.3064 10.4697C94.9644 11.1538 94.4887 11.6775 93.8795 12.041C93.2809 12.4044 92.5969 12.5861 91.8273 12.5861C91.0256 12.5861 90.3416 12.3883 89.7751 11.9929C89.2086 11.5974 88.8131 11.0736 88.5886 10.4216V16.6745H86.7609V3.63971H88.5886V5.69193C88.8131 5.03992 89.2086 4.51618 89.7751 4.1207C90.3416 3.72522 91.0256 3.52748 91.8273 3.52748ZM91.2661 5.13077C90.7531 5.13077 90.2935 5.25369 89.8873 5.49953C89.4811 5.73468 89.1605 6.07672 88.9253 6.52564C88.6902 6.96387 88.5726 7.47158 88.5726 8.04877C88.5726 8.63664 88.6902 9.14969 88.9253 9.58793C89.1605 10.0262 89.4811 10.3682 89.8873 10.614C90.2935 10.8492 90.7531 10.9668 91.2661 10.9668C92.0785 10.9668 92.7305 10.7102 93.2221 10.1972C93.7138 9.67343 93.9596 8.9573 93.9596 8.04877C93.9596 7.15092 93.7138 6.44013 93.2221 5.91639C92.7305 5.39265 92.0785 5.13077 91.2661 5.13077ZM99.4077 0.609493V12.4738H97.58V0.609493H99.4077ZM105.163 3.52748C105.964 3.52748 106.648 3.72522 107.215 4.1207C107.781 4.51618 108.182 5.03992 108.417 5.69193V3.63971H110.245V12.4738H108.417V10.4216C108.182 11.0736 107.781 11.5974 107.215 11.9929C106.648 12.3883 105.964 12.5861 105.163 12.5861C104.393 12.5861 103.704 12.4044 103.095 12.041C102.496 11.6775 102.026 11.1538 101.684 10.4697C101.342 9.78566 101.171 8.97867 101.171 8.04877C101.171 7.12954 101.342 6.3279 101.684 5.64383C102.026 4.95976 102.496 4.43602 103.095 4.0726C103.704 3.70919 104.393 3.52748 105.163 3.52748ZM105.724 5.13077C104.912 5.13077 104.26 5.39265 103.768 5.91639C103.287 6.42944 103.046 7.14023 103.046 8.04877C103.046 8.9573 103.287 9.67343 103.768 10.1972C104.26 10.7102 104.912 10.9668 105.724 10.9668C106.237 10.9668 106.697 10.8492 107.103 10.614C107.509 10.3682 107.83 10.0262 108.065 9.58793C108.3 9.14969 108.417 8.63664 108.417 8.04877C108.417 7.47158 108.3 6.96387 108.065 6.52564C107.83 6.07672 107.509 5.73468 107.103 5.49953C106.697 5.25369 106.237 5.13077 105.724 5.13077ZM116.88 10.8866V12.4738H115.757C114.817 12.4738 114.101 12.2494 113.609 11.8005C113.128 11.3409 112.888 10.582 112.888 9.52379V5.19491H111.621V3.63971H112.888V1.4432H114.731V3.63971H116.864V5.19491H114.731V9.55586C114.731 10.0582 114.822 10.4056 115.004 10.598C115.196 10.7904 115.528 10.8866 115.998 10.8866H116.88ZM122.712 1.81196C121.996 1.7799 121.494 1.89747 121.205 2.16469C120.917 2.42121 120.772 2.86479 120.772 3.49542V3.63971H122.712V5.21094H120.772V12.4738H118.929V5.21094H117.726V3.63971H118.929V3.35112C118.929 2.27157 119.244 1.46458 119.874 0.930151C120.505 0.385032 121.451 0.144538 122.712 0.20867V1.81196ZM128.222 3.52748C129.077 3.52748 129.846 3.70919 130.53 4.0726C131.215 4.43602 131.749 4.95976 132.134 5.64383C132.519 6.3279 132.711 7.12954 132.711 8.04877C132.711 8.97867 132.519 9.78566 132.134 10.4697C131.749 11.1538 131.215 11.6775 130.53 12.041C129.846 12.4044 129.077 12.5861 128.222 12.5861C127.367 12.5861 126.597 12.4044 125.913 12.041C125.24 11.6775 124.705 11.1538 124.31 10.4697C123.925 9.77498 123.733 8.96799 123.733 8.04877C123.733 7.12954 123.925 6.3279 124.31 5.64383C124.705 4.95976 125.24 4.43602 125.913 4.0726C126.597 3.70919 127.367 3.52748 128.222 3.52748ZM128.222 5.11474C127.751 5.11474 127.319 5.22163 126.923 5.4354C126.528 5.64917 126.207 5.98052 125.961 6.42944C125.726 6.86767 125.608 7.40745 125.608 8.04877C125.608 8.70077 125.726 9.24589 125.961 9.68412C126.207 10.1224 126.528 10.4484 126.923 10.6621C127.319 10.8759 127.751 10.9828 128.222 10.9828C128.692 10.9828 129.125 10.8759 129.52 10.6621C129.916 10.4484 130.231 10.1224 130.466 9.68412C130.712 9.24589 130.835 8.70077 130.835 8.04877C130.835 7.40745 130.712 6.86767 130.466 6.42944C130.231 5.98052 129.916 5.64917 129.52 5.4354C129.125 5.22163 128.692 5.11474 128.222 5.11474ZM136.296 5.37127C136.595 4.79408 137.023 4.33982 137.579 4.00847C138.134 3.66644 138.776 3.49542 139.503 3.49542V5.4835H138.957C138.156 5.4835 137.509 5.68124 137.017 6.07672C136.536 6.46151 136.296 7.10282 136.296 8.00067V12.4738H134.468V3.63971H136.296V5.37127ZM151.919 3.49542C152.966 3.49542 153.8 3.82676 154.42 4.48946C155.05 5.15215 155.366 6.09809 155.366 7.32728V12.4738H153.538V7.51968C153.538 6.7501 153.346 6.15688 152.961 5.74003C152.576 5.31248 152.047 5.09871 151.374 5.09871C150.657 5.09871 150.086 5.32851 149.658 5.78812C149.241 6.23705 149.033 6.89974 149.033 7.77621V12.4738H147.205V7.51968C147.205 6.7501 147.013 6.15688 146.628 5.74003C146.243 5.31248 145.714 5.09871 145.041 5.09871C144.324 5.09871 143.753 5.32851 143.325 5.78812C142.908 6.23705 142.7 6.89974 142.7 7.77621V12.4738H140.872V3.63971H142.7V5.4835C142.924 4.84218 143.298 4.35051 143.822 4.00847C144.346 3.66644 144.96 3.49542 145.666 3.49542C146.403 3.49542 147.039 3.67712 147.574 4.04054C148.119 4.40395 148.514 4.92769 148.76 5.61176C149.017 4.94907 149.428 4.43067 149.995 4.05657C150.561 3.68247 151.202 3.49542 151.919 3.49542ZM165.699 10.8866V12.4738H164.576C163.636 12.4738 162.92 12.2494 162.428 11.8005C161.947 11.3409 161.706 10.582 161.706 9.52379V5.19491H160.44V3.63971H161.706V1.4432H163.55V3.63971H165.683V5.19491H163.55V9.55586C163.55 10.0582 163.641 10.4056 163.823 10.598C164.015 10.7904 164.347 10.8866 164.817 10.8866H165.699ZM172.349 3.49542C173.375 3.49542 174.198 3.82676 174.818 4.48946C175.438 5.15215 175.748 6.09809 175.748 7.32728V12.4738H173.92V7.51968C173.92 6.72872 173.717 6.11947 173.311 5.69193C172.905 5.25369 172.349 5.03458 171.643 5.03458C170.917 5.03458 170.334 5.26973 169.896 5.74003C169.458 6.19964 169.239 6.87836 169.239 7.77621V12.4738H167.411V0.609493H169.239V5.5797C169.474 4.917 169.869 4.40395 170.425 4.04054C170.981 3.67712 171.622 3.49542 172.349 3.49542ZM181.429 3.52748C182.23 3.52748 182.914 3.72522 183.481 4.1207C184.047 4.51618 184.448 5.03992 184.683 5.69193V3.63971H186.511V12.4738H184.683V10.4216C184.448 11.0736 184.047 11.5974 183.481 11.9929C182.914 12.3883 182.23 12.5861 181.429 12.5861C180.659 12.5861 179.97 12.4044 179.36 12.041C178.762 11.6775 178.292 11.1538 177.95 10.4697C177.608 9.78566 177.437 8.97867 177.437 8.04877C177.437 7.12954 177.608 6.3279 177.95 5.64383C178.292 4.95976 178.762 4.43602 179.36 4.0726C179.97 3.70919 180.659 3.52748 181.429 3.52748ZM181.99 5.13077C181.178 5.13077 180.526 5.39265 180.034 5.91639C179.553 6.42944 179.312 7.14023 179.312 8.04877C179.312 8.9573 179.553 9.67343 180.034 10.1972C180.526 10.7102 181.178 10.9668 181.99 10.9668C182.503 10.9668 182.963 10.8492 183.369 10.614C183.775 10.3682 184.096 10.0262 184.331 9.58793C184.566 9.14969 184.683 8.63664 184.683 8.04877C184.683 7.47158 184.566 6.96387 184.331 6.52564C184.096 6.07672 183.775 5.73468 183.369 5.49953C182.963 5.25369 182.503 5.13077 181.99 5.13077ZM193.146 10.8866V12.4738H192.023C191.083 12.4738 190.367 12.2494 189.875 11.8005C189.394 11.3409 189.153 10.582 189.153 9.52379V5.19491H187.887V3.63971H189.153V1.4432H190.997V3.63971H193.13V5.19491H190.997V9.55586C190.997 10.0582 191.088 10.4056 191.27 10.598C191.462 10.7904 191.794 10.8866 192.264 10.8866H193.146ZM203.682 3.52748C204.451 3.52748 205.136 3.70919 205.734 4.0726C206.343 4.43602 206.819 4.95976 207.161 5.64383C207.503 6.3279 207.674 7.12954 207.674 8.04877C207.674 8.97867 207.503 9.78566 207.161 10.4697C206.819 11.1538 206.343 11.6775 205.734 12.041C205.136 12.4044 204.451 12.5861 203.682 12.5861C202.88 12.5861 202.196 12.3883 201.63 11.9929C201.063 11.5974 200.668 11.0736 200.443 10.4216V12.4738H198.615V0.609493H200.443V5.69193C200.668 5.03992 201.063 4.51618 201.63 4.1207C202.196 3.72522 202.88 3.52748 203.682 3.52748ZM203.121 5.13077C202.608 5.13077 202.148 5.25369 201.742 5.49953C201.336 5.73468 201.015 6.07672 200.78 6.52564C200.545 6.96387 200.427 7.47158 200.427 8.04877C200.427 8.63664 200.545 9.14969 200.78 9.58793C201.015 10.0262 201.336 10.3682 201.742 10.614C202.148 10.8492 202.608 10.9668 203.121 10.9668C203.933 10.9668 204.585 10.7102 205.077 10.1972C205.568 9.67343 205.814 8.9573 205.814 8.04877C205.814 7.15092 205.568 6.44013 205.077 5.91639C204.585 5.39265 203.933 5.13077 203.121 5.13077ZM211.262 5.37127C211.562 4.79408 211.989 4.33982 212.545 4.00847C213.101 3.66644 213.742 3.49542 214.469 3.49542V5.4835H213.924C213.122 5.4835 212.475 5.68124 211.984 6.07672C211.503 6.46151 211.262 7.10282 211.262 8.00067V12.4738H209.435V3.63971H211.262V5.37127ZM215.582 1.07445C215.582 0.764478 215.689 0.507951 215.902 0.304867C216.116 0.101784 216.4 0.000241776 216.752 0.000241776C217.105 0.000241776 217.388 0.101784 217.602 0.304867C217.826 0.507951 217.939 0.764478 217.939 1.07445C217.939 1.38442 217.826 1.6356 217.602 1.82799C217.388 2.02039 217.105 2.11659 216.752 2.11659C216.4 2.11659 216.116 2.02039 215.902 1.82799C215.689 1.6356 215.582 1.38442 215.582 1.07445ZM217.666 3.63971V12.4738H215.838V3.63971H217.666ZM224.816 3.49542C225.842 3.49542 226.665 3.82676 227.285 4.48946C227.905 5.15215 228.215 6.09809 228.215 7.32728V12.4738H226.387V7.51968C226.387 6.72872 226.184 6.11947 225.778 5.69193C225.372 5.25369 224.816 5.03458 224.111 5.03458C223.384 5.03458 222.801 5.26973 222.363 5.74003C221.925 6.19964 221.706 6.87836 221.706 7.77621V12.4738H219.878V3.63971H221.706V5.5797C221.941 4.917 222.336 4.40395 222.892 4.04054C223.448 3.67712 224.089 3.49542 224.816 3.49542ZM233.896 3.52748C234.697 3.52748 235.382 3.72522 235.948 4.1207C236.515 4.51618 236.915 5.03992 237.15 5.69193V3.63971H238.978V12.57C238.978 13.3931 238.807 14.1199 238.465 14.7505C238.134 15.3918 237.653 15.8942 237.022 16.2576C236.392 16.621 235.643 16.8027 234.778 16.8027C233.538 16.8027 232.533 16.5088 231.763 15.9209C231.005 15.3331 230.529 14.5368 230.336 13.532H232.148C232.298 14.0558 232.586 14.4619 233.014 14.7505C233.442 15.0498 233.987 15.1994 234.649 15.1994C235.376 15.1994 235.975 14.975 236.445 14.5261C236.915 14.0771 237.15 13.4251 237.15 12.57V10.4216C236.915 11.0736 236.515 11.5974 235.948 11.9929C235.382 12.3883 234.697 12.5861 233.896 12.5861C233.126 12.5861 232.437 12.4044 231.828 12.041C231.229 11.6775 230.759 11.1538 230.417 10.4697C230.075 9.78566 229.904 8.97867 229.904 8.04877C229.904 7.12954 230.075 6.3279 230.417 5.64383C230.759 4.95976 231.229 4.43602 231.828 4.0726C232.437 3.70919 233.126 3.52748 233.896 3.52748ZM234.457 5.13077C233.645 5.13077 232.993 5.39265 232.501 5.91639C232.02 6.42944 231.779 7.14023 231.779 8.04877C231.779 8.9573 232.02 9.67343 232.501 10.1972C232.993 10.7102 233.645 10.9668 234.457 10.9668C234.97 10.9668 235.43 10.8492 235.836 10.614C236.242 10.3682 236.563 10.0262 236.798 9.58793C237.033 9.14969 237.15 8.63664 237.15 8.04877C237.15 7.47158 237.033 6.96387 236.798 6.52564C236.563 6.07672 236.242 5.73468 235.836 5.49953C235.43 5.25369 234.97 5.13077 234.457 5.13077ZM244.074 3.52748C245.11 3.52748 245.939 3.7947 246.559 4.32913C247.189 4.85287 247.574 5.55832 247.713 6.44547H245.981C245.907 5.96449 245.698 5.5797 245.356 5.2911C245.025 4.99182 244.581 4.84218 244.025 4.84218C243.566 4.84218 243.208 4.95441 242.951 5.17887C242.705 5.39265 242.583 5.68658 242.583 6.06068C242.583 6.33859 242.673 6.56305 242.855 6.73407C243.037 6.90508 243.261 7.03869 243.528 7.13489C243.806 7.23109 244.196 7.33797 244.699 7.45555C245.362 7.60519 245.896 7.76017 246.302 7.9205C246.719 8.08083 247.072 8.33736 247.36 8.69008C247.66 9.03212 247.809 9.50242 247.809 10.101C247.809 10.8385 247.526 11.4371 246.959 11.8967C246.404 12.3563 245.65 12.5861 244.699 12.5861C243.598 12.5861 242.705 12.3296 242.021 11.8165C241.348 11.3034 240.942 10.5873 240.803 9.66809H242.583C242.636 10.1491 242.85 10.5392 243.224 10.8385C243.598 11.1378 244.09 11.2874 244.699 11.2874C245.137 11.2874 245.479 11.1752 245.725 10.9507C245.981 10.7156 246.11 10.4216 246.11 10.0689C246.11 9.75894 246.014 9.5131 245.821 9.3314C245.629 9.14969 245.388 9.01074 245.1 8.91454C244.811 8.80766 244.416 8.70077 243.913 8.59388C243.272 8.44424 242.748 8.2946 242.342 8.14496C241.947 7.99532 241.604 7.75483 241.316 7.42348C241.038 7.08145 240.899 6.62184 240.899 6.04465C240.899 5.29645 241.177 4.69254 241.733 4.23293C242.299 3.76263 243.08 3.52748 244.074 3.52748ZM257.841 10.8866V12.4738H256.719C255.778 12.4738 255.062 12.2494 254.57 11.8005C254.089 11.3409 253.849 10.582 253.849 9.52379V5.19491H252.582V3.63971H253.849V1.4432H255.693V3.63971H257.825V5.19491H255.693V9.55586C255.693 10.0582 255.783 10.4056 255.965 10.598C256.157 10.7904 256.489 10.8866 256.959 10.8866H257.841ZM263.593 3.52748C264.448 3.52748 265.218 3.70919 265.902 4.0726C266.586 4.43602 267.121 4.95976 267.505 5.64383C267.89 6.3279 268.083 7.12954 268.083 8.04877C268.083 8.97867 267.89 9.78566 267.505 10.4697C267.121 11.1538 266.586 11.6775 265.902 12.041C265.218 12.4044 264.448 12.5861 263.593 12.5861C262.738 12.5861 261.969 12.4044 261.285 12.041C260.611 11.6775 260.077 11.1538 259.681 10.4697C259.297 9.77498 259.104 8.96799 259.104 8.04877C259.104 7.12954 259.297 6.3279 259.681 5.64383C260.077 4.95976 260.611 4.43602 261.285 4.0726C261.969 3.70919 262.738 3.52748 263.593 3.52748ZM263.593 5.11474C263.123 5.11474 262.69 5.22163 262.295 5.4354C261.899 5.64917 261.579 5.98052 261.333 6.42944C261.098 6.86767 260.98 7.40745 260.98 8.04877C260.98 8.70077 261.098 9.24589 261.333 9.68412C261.579 10.1224 261.899 10.4484 262.295 10.6621C262.69 10.8759 263.123 10.9828 263.593 10.9828C264.064 10.9828 264.497 10.8759 264.892 10.6621C265.288 10.4484 265.603 10.1224 265.838 9.68412C266.084 9.24589 266.207 8.70077 266.207 8.04877C266.207 7.40745 266.084 6.86767 265.838 6.42944C265.603 5.98052 265.288 5.64917 264.892 5.4354C264.497 5.22163 264.064 5.11474 263.593 5.11474ZM273.383 3.52748C274.185 3.52748 274.869 3.72522 275.435 4.1207C276.002 4.51618 276.403 5.03992 276.638 5.69193V3.63971H278.466V12.57C278.466 13.3931 278.295 14.1199 277.952 14.7505C277.621 15.3918 277.14 15.8942 276.51 16.2576C275.879 16.621 275.131 16.8027 274.265 16.8027C273.025 16.8027 272.02 16.5088 271.251 15.9209C270.492 15.3331 270.016 14.5368 269.824 13.532H271.636C271.785 14.0558 272.074 14.4619 272.501 14.7505C272.929 15.0498 273.474 15.1994 274.137 15.1994C274.863 15.1994 275.462 14.975 275.932 14.5261C276.403 14.0771 276.638 13.4251 276.638 12.57V10.4216C276.403 11.0736 276.002 11.5974 275.435 11.9929C274.869 12.3883 274.185 12.5861 273.383 12.5861C272.614 12.5861 271.924 12.4044 271.315 12.041C270.716 11.6775 270.246 11.1538 269.904 10.4697C269.562 9.78566 269.391 8.97867 269.391 8.04877C269.391 7.12954 269.562 6.3279 269.904 5.64383C270.246 4.95976 270.716 4.43602 271.315 4.0726C271.924 3.70919 272.614 3.52748 273.383 3.52748ZM273.944 5.13077C273.132 5.13077 272.48 5.39265 271.988 5.91639C271.507 6.42944 271.267 7.14023 271.267 8.04877C271.267 8.9573 271.507 9.67343 271.988 10.1972C272.48 10.7102 273.132 10.9668 273.944 10.9668C274.457 10.9668 274.917 10.8492 275.323 10.614C275.729 10.3682 276.05 10.0262 276.285 9.58793C276.52 9.14969 276.638 8.63664 276.638 8.04877C276.638 7.47158 276.52 6.96387 276.285 6.52564C276.05 6.07672 275.729 5.73468 275.323 5.49953C274.917 5.25369 274.457 5.13077 273.944 5.13077ZM288.868 7.63191C288.868 7.93119 288.846 8.19306 288.804 8.41752H282.006C282.038 9.32605 282.289 9.99944 282.759 10.4377C283.23 10.8759 283.812 11.095 284.507 11.095C285.116 11.095 285.629 10.94 286.046 10.6301C286.474 10.3201 286.735 9.90858 286.832 9.39553H288.788C288.67 10.0155 288.424 10.5659 288.05 11.0469C287.676 11.5279 287.19 11.9074 286.591 12.1853C285.993 12.4525 285.324 12.5861 284.587 12.5861C283.732 12.5861 282.973 12.4044 282.31 12.041C281.658 11.6775 281.145 11.1538 280.771 10.4697C280.397 9.78566 280.21 8.97867 280.21 8.04877C280.21 7.12954 280.397 6.3279 280.771 5.64383C281.145 4.95976 281.658 4.43602 282.31 4.0726C282.973 3.70919 283.732 3.52748 284.587 3.52748C285.453 3.52748 286.206 3.70919 286.848 4.0726C287.5 4.42533 287.997 4.917 288.339 5.54763C288.691 6.16757 288.868 6.86233 288.868 7.63191ZM287.024 7.58381C287.045 7.00663 286.944 6.52564 286.719 6.14085C286.506 5.74537 286.206 5.45678 285.822 5.27507C285.447 5.08268 285.036 4.98648 284.587 4.98648C283.871 4.98648 283.272 5.2056 282.791 5.64383C282.31 6.08206 282.048 6.72872 282.006 7.58381H287.024ZM295.074 10.8866V12.4738H293.951C293.011 12.4738 292.295 12.2494 291.803 11.8005C291.322 11.3409 291.081 10.582 291.081 9.52379V5.19491H289.815V3.63971H291.081V1.4432H292.925V3.63971H295.058V5.19491H292.925V9.55586C292.925 10.0582 293.016 10.4056 293.198 10.598C293.39 10.7904 293.722 10.8866 294.192 10.8866H295.074ZM301.724 3.49542C302.75 3.49542 303.573 3.82676 304.193 4.48946C304.813 5.15215 305.123 6.09809 305.123 7.32728V12.4738H303.295V7.51968C303.295 6.72872 303.092 6.11947 302.686 5.69193C302.28 5.25369 301.724 5.03458 301.018 5.03458C300.292 5.03458 299.709 5.26973 299.271 5.74003C298.833 6.19964 298.614 6.87836 298.614 7.77621V12.4738H296.786V0.609493H298.614V5.5797C298.849 4.917 299.244 4.40395 299.8 4.04054C300.356 3.67712 300.997 3.49542 301.724 3.49542ZM315.469 7.63191C315.469 7.93119 315.448 8.19306 315.405 8.41752H308.607C308.639 9.32605 308.89 9.99944 309.361 10.4377C309.831 10.8759 310.414 11.095 311.108 11.095C311.718 11.095 312.231 10.94 312.647 10.6301C313.075 10.3201 313.337 9.90858 313.433 9.39553H315.389C315.272 10.0155 315.026 10.5659 314.652 11.0469C314.277 11.5279 313.791 11.9074 313.193 12.1853C312.594 12.4525 311.926 12.5861 311.188 12.5861C310.333 12.5861 309.574 12.4044 308.912 12.041C308.26 11.6775 307.747 11.1538 307.373 10.4697C306.999 9.78566 306.811 8.97867 306.811 8.04877C306.811 7.12954 306.999 6.3279 307.373 5.64383C307.747 4.95976 308.26 4.43602 308.912 4.0726C309.574 3.70919 310.333 3.52748 311.188 3.52748C312.054 3.52748 312.808 3.70919 313.449 4.0726C314.101 4.42533 314.598 4.917 314.94 5.54763C315.293 6.16757 315.469 6.86233 315.469 7.63191ZM313.625 7.58381C313.647 7.00663 313.545 6.52564 313.321 6.14085C313.107 5.74537 312.808 5.45678 312.423 5.27507C312.049 5.08268 311.637 4.98648 311.188 4.98648C310.472 4.98648 309.874 5.2056 309.393 5.64383C308.912 6.08206 308.65 6.72872 308.607 7.58381H313.625ZM319.062 5.37127C319.361 4.79408 319.789 4.33982 320.344 4.00847C320.9 3.66644 321.542 3.49542 322.268 3.49542V5.4835H321.723C320.922 5.4835 320.275 5.68124 319.783 6.07672C319.302 6.46151 319.062 7.10282 319.062 8.00067V12.4738H317.234V3.63971H319.062V5.37127ZM331.324 3.52748C332.467 3.52748 333.413 3.83211 334.161 4.44136C334.91 5.03992 335.375 5.8576 335.556 6.8944H333.616C333.509 6.33859 333.248 5.9057 332.831 5.59573C332.424 5.27507 331.911 5.11474 331.291 5.11474C330.586 5.11474 329.998 5.36592 329.528 5.86829C329.058 6.35996 328.822 7.08679 328.822 8.04877C328.822 9.01074 329.058 9.74291 329.528 10.2453C329.998 10.7476 330.586 10.9988 331.291 10.9988C331.911 10.9988 332.424 10.8385 332.831 10.5178C333.248 10.1972 333.509 9.75894 333.616 9.20314H335.556C335.375 10.2399 334.91 11.063 334.161 11.6722C333.413 12.2815 332.467 12.5861 331.324 12.5861C330.468 12.5861 329.71 12.4044 329.047 12.041C328.395 11.6775 327.882 11.1538 327.508 10.4697C327.134 9.78566 326.947 8.97867 326.947 8.04877C326.947 7.12954 327.134 6.3279 327.508 5.64383C327.882 4.95976 328.395 4.43602 329.047 4.0726C329.71 3.70919 330.468 3.52748 331.324 3.52748ZM339.15 5.37127C339.449 4.79408 339.877 4.33982 340.433 4.00847C340.988 3.66644 341.63 3.49542 342.356 3.49542V5.4835H341.811C341.01 5.4835 340.363 5.68124 339.871 6.07672C339.39 6.46151 339.15 7.10282 339.15 8.00067V12.4738H337.322V3.63971H339.15V5.37127ZM351.935 7.63191C351.935 7.93119 351.913 8.19306 351.871 8.41752H345.073C345.105 9.32605 345.356 9.99944 345.826 10.4377C346.297 10.8759 346.879 11.095 347.574 11.095C348.183 11.095 348.696 10.94 349.113 10.6301C349.54 10.3201 349.802 9.90858 349.899 9.39553H351.855C351.737 10.0155 351.491 10.5659 351.117 11.0469C350.743 11.5279 350.257 11.9074 349.658 12.1853C349.06 12.4525 348.391 12.5861 347.654 12.5861C346.799 12.5861 346.04 12.4044 345.377 12.041C344.725 11.6775 344.212 11.1538 343.838 10.4697C343.464 9.78566 343.277 8.97867 343.277 8.04877C343.277 7.12954 343.464 6.3279 343.838 5.64383C344.212 4.95976 344.725 4.43602 345.377 4.0726C346.04 3.70919 346.799 3.52748 347.654 3.52748C348.52 3.52748 349.273 3.70919 349.915 4.0726C350.567 4.42533 351.064 4.917 351.406 5.54763C351.758 6.16757 351.935 6.86233 351.935 7.63191ZM350.091 7.58381C350.112 7.00663 350.011 6.52564 349.786 6.14085C349.573 5.74537 349.273 5.45678 348.888 5.27507C348.514 5.08268 348.103 4.98648 347.654 4.98648C346.938 4.98648 346.339 5.2056 345.858 5.64383C345.377 6.08206 345.115 6.72872 345.073 7.58381H350.091ZM357.243 3.52748C358.044 3.52748 358.728 3.72522 359.295 4.1207C359.861 4.51618 360.262 5.03992 360.497 5.69193V3.63971H362.325V12.4738H360.497V10.4216C360.262 11.0736 359.861 11.5974 359.295 11.9929C358.728 12.3883 358.044 12.5861 357.243 12.5861C356.473 12.5861 355.784 12.4044 355.175 12.041C354.576 11.6775 354.106 11.1538 353.764 10.4697C353.422 9.78566 353.251 8.97867 353.251 8.04877C353.251 7.12954 353.422 6.3279 353.764 5.64383C354.106 4.95976 354.576 4.43602 355.175 4.0726C355.784 3.70919 356.473 3.52748 357.243 3.52748ZM357.804 5.13077C356.992 5.13077 356.34 5.39265 355.848 5.91639C355.367 6.42944 355.126 7.14023 355.126 8.04877C355.126 8.9573 355.367 9.67343 355.848 10.1972C356.34 10.7102 356.992 10.9668 357.804 10.9668C358.317 10.9668 358.777 10.8492 359.183 10.614C359.589 10.3682 359.91 10.0262 360.145 9.58793C360.38 9.14969 360.497 8.63664 360.497 8.04877C360.497 7.47158 360.38 6.96387 360.145 6.52564C359.91 6.07672 359.589 5.73468 359.183 5.49953C358.777 5.25369 358.317 5.13077 357.804 5.13077ZM368.96 10.8866V12.4738H367.837C366.897 12.4738 366.181 12.2494 365.689 11.8005C365.208 11.3409 364.967 10.582 364.967 9.52379V5.19491H363.701V3.63971H364.967V1.4432H366.811V3.63971H368.944V5.19491H366.811V9.55586C366.811 10.0582 366.902 10.4056 367.084 10.598C367.276 10.7904 367.608 10.8866 368.078 10.8866H368.96ZM374.712 3.52748C375.567 3.52748 376.337 3.70919 377.021 4.0726C377.705 4.43602 378.239 4.95976 378.624 5.64383C379.009 6.3279 379.201 7.12954 379.201 8.04877C379.201 8.97867 379.009 9.78566 378.624 10.4697C378.239 11.1538 377.705 11.6775 377.021 12.041C376.337 12.4044 375.567 12.5861 374.712 12.5861C373.857 12.5861 373.087 12.4044 372.403 12.041C371.73 11.6775 371.196 11.1538 370.8 10.4697C370.415 9.77498 370.223 8.96799 370.223 8.04877C370.223 7.12954 370.415 6.3279 370.8 5.64383C371.196 4.95976 371.73 4.43602 372.403 4.0726C373.087 3.70919 373.857 3.52748 374.712 3.52748ZM374.712 5.11474C374.242 5.11474 373.809 5.22163 373.413 5.4354C373.018 5.64917 372.697 5.98052 372.451 6.42944C372.216 6.86767 372.099 7.40745 372.099 8.04877C372.099 8.70077 372.216 9.24589 372.451 9.68412C372.697 10.1224 373.018 10.4484 373.413 10.6621C373.809 10.8759 374.242 10.9828 374.712 10.9828C375.182 10.9828 375.615 10.8759 376.011 10.6621C376.406 10.4484 376.722 10.1224 376.957 9.68412C377.203 9.24589 377.325 8.70077 377.325 8.04877C377.325 7.40745 377.203 6.86767 376.957 6.42944C376.722 5.98052 376.406 5.64917 376.011 5.4354C375.615 5.22163 375.182 5.11474 374.712 5.11474ZM382.786 5.37127C383.086 4.79408 383.513 4.33982 384.069 4.00847C384.625 3.66644 385.266 3.49542 385.993 3.49542V5.4835H385.448C384.646 5.4835 383.999 5.68124 383.508 6.07672C383.027 6.46151 382.786 7.10282 382.786 8.00067V12.4738H380.959V3.63971H382.786V5.37127ZM390.264 3.52748C391.301 3.52748 392.129 3.7947 392.749 4.32913C393.38 4.85287 393.765 5.55832 393.904 6.44547H392.172C392.097 5.96449 391.889 5.5797 391.547 5.2911C391.216 4.99182 390.772 4.84218 390.216 4.84218C389.757 4.84218 389.399 4.95441 389.142 5.17887C388.896 5.39265 388.773 5.68658 388.773 6.06068C388.773 6.33859 388.864 6.56305 389.046 6.73407C389.228 6.90508 389.452 7.03869 389.719 7.13489C389.997 7.23109 390.387 7.33797 390.89 7.45555C391.552 7.60519 392.087 7.76017 392.493 7.9205C392.91 8.08083 393.262 8.33736 393.551 8.69008C393.85 9.03212 394 9.50242 394 10.101C394 10.8385 393.717 11.4371 393.15 11.8967C392.594 12.3563 391.841 12.5861 390.89 12.5861C389.789 12.5861 388.896 12.3296 388.212 11.8165C387.539 11.3034 387.133 10.5873 386.994 9.66809H388.773C388.827 10.1491 389.04 10.5392 389.415 10.8385C389.789 11.1378 390.28 11.2874 390.89 11.2874C391.328 11.2874 391.67 11.1752 391.916 10.9507C392.172 10.7156 392.3 10.4216 392.3 10.0689C392.3 9.75894 392.204 9.5131 392.012 9.3314C391.819 9.14969 391.579 9.01074 391.29 8.91454C391.002 8.80766 390.606 8.70077 390.104 8.59388C389.463 8.44424 388.939 8.2946 388.533 8.14496C388.137 7.99532 387.795 7.75483 387.507 7.42348C387.229 7.08145 387.09 6.62184 387.09 6.04465C387.09 5.29645 387.368 4.69254 387.923 4.23293C388.49 3.76263 389.27 3.52748 390.264 3.52748ZM124.058 36.0743H119.28L118.414 38.5273H116.458L120.627 27.3845H122.727L126.88 38.5273H124.924L124.058 36.0743ZM123.545 34.6634L121.669 29.3725L119.793 34.6634H123.545ZM133.175 29.5489C134.201 29.5489 135.024 29.8802 135.644 30.5429C136.264 31.2056 136.574 32.1516 136.574 33.3808V38.5273H134.746V33.5732C134.746 32.7822 134.543 32.173 134.137 31.7454C133.731 31.3072 133.175 31.0881 132.469 31.0881C131.743 31.0881 131.16 31.3232 130.722 31.7935C130.284 32.2531 130.064 32.9318 130.064 33.8297V38.5273H128.237V29.6932H130.064V31.6332C130.3 30.9705 130.695 30.4574 131.251 30.094C131.807 29.7306 132.448 29.5489 133.175 29.5489ZM142.255 29.581C143.056 29.581 143.74 29.7787 144.307 30.1742C144.873 30.5697 145.269 31.0934 145.493 31.7454V26.663H147.337V38.5273H145.493V36.4751C145.269 37.1271 144.873 37.6509 144.307 38.0463C143.74 38.4418 143.056 38.6396 142.255 38.6396C141.485 38.6396 140.796 38.4579 140.186 38.0944C139.588 37.731 139.117 37.2073 138.775 36.5232C138.433 35.8391 138.262 35.0322 138.262 34.1022C138.262 33.183 138.433 32.3814 138.775 31.6973C139.117 31.0132 139.588 30.4895 140.186 30.1261C140.796 29.7627 141.485 29.581 142.255 29.581ZM142.816 31.1843C142.003 31.1843 141.351 31.4461 140.86 31.9699C140.379 32.4829 140.138 33.1937 140.138 34.1022C140.138 35.0108 140.379 35.7269 140.86 36.2507C141.351 36.7637 142.003 37.0202 142.816 37.0202C143.329 37.0202 143.788 36.9027 144.195 36.6675C144.601 36.4217 144.921 36.0796 145.157 35.6414C145.392 35.2032 145.509 34.6901 145.509 34.1022C145.509 33.5251 145.392 33.0174 145.157 32.5791C144.921 32.1302 144.601 31.7882 144.195 31.553C143.788 31.3072 143.329 31.1843 142.816 31.1843ZM157.729 36.9401V38.5273H156.607C155.666 38.5273 154.95 38.3029 154.458 37.854C153.977 37.3943 153.737 36.6355 153.737 35.5773V31.2484H152.47V29.6932H153.737V27.4967H155.581V29.6932H157.713V31.2484H155.581V35.6093C155.581 36.1117 155.672 36.4591 155.853 36.6515C156.046 36.8439 156.377 36.9401 156.847 36.9401H157.729ZM164.379 29.5489C165.406 29.5489 166.229 29.8802 166.849 30.5429C167.468 31.2056 167.778 32.1516 167.778 33.3808V38.5273H165.951V33.5732C165.951 32.7822 165.748 32.173 165.341 31.7454C164.935 31.3072 164.379 31.0881 163.674 31.0881C162.947 31.0881 162.365 31.3232 161.926 31.7935C161.488 32.2531 161.269 32.9318 161.269 33.8297V38.5273H159.441V26.663H161.269V31.6332C161.504 30.9705 161.9 30.4574 162.456 30.094C163.011 29.7306 163.653 29.5489 164.379 29.5489ZM178.125 33.6854C178.125 33.9847 178.103 34.2465 178.061 34.471H171.263C171.295 35.3795 171.546 36.0529 172.016 36.4912C172.487 36.9294 173.069 37.1485 173.764 37.1485C174.373 37.1485 174.886 36.9935 175.303 36.6835C175.731 36.3736 175.992 35.9621 176.089 35.449H178.045C177.927 36.069 177.681 36.6194 177.307 37.1004C176.933 37.5814 176.447 37.9608 175.848 38.2387C175.25 38.506 174.582 38.6396 173.844 38.6396C172.989 38.6396 172.23 38.4579 171.567 38.0944C170.915 37.731 170.402 37.2073 170.028 36.5232C169.654 35.8391 169.467 35.0322 169.467 34.1022C169.467 33.183 169.654 32.3814 170.028 31.6973C170.402 31.0132 170.915 30.4895 171.567 30.1261C172.23 29.7627 172.989 29.581 173.844 29.581C174.71 29.581 175.463 29.7627 176.105 30.1261C176.757 30.4788 177.254 30.9705 177.596 31.6011C177.948 32.2211 178.125 32.9158 178.125 33.6854ZM176.281 33.6373C176.302 33.0601 176.201 32.5791 175.976 32.1943C175.763 31.7989 175.463 31.5103 175.079 31.3286C174.704 31.1362 174.293 31.04 173.844 31.04C173.128 31.04 172.529 31.2591 172.048 31.6973C171.567 32.1355 171.305 32.7822 171.263 33.6373H176.281ZM179.633 27.1279C179.633 26.818 179.74 26.5614 179.954 26.3584C180.167 26.1553 180.451 26.0537 180.803 26.0537C181.156 26.0537 181.439 26.1553 181.653 26.3584C181.878 26.5614 181.99 26.818 181.99 27.1279C181.99 27.4379 181.878 27.6891 181.653 27.8815C181.439 28.0739 181.156 28.1701 180.803 28.1701C180.451 28.1701 180.167 28.0739 179.954 27.8815C179.74 27.6891 179.633 27.4379 179.633 27.1279ZM181.717 29.6932V38.5273H179.89V29.6932H181.717ZM185.757 31.4248C186.056 30.8476 186.484 30.3933 187.039 30.062C187.595 29.7199 188.237 29.5489 188.963 29.5489V31.537H188.418C187.617 31.537 186.97 31.7347 186.478 32.1302C185.997 32.515 185.757 33.1563 185.757 34.0542V38.5273H183.929V29.6932H185.757V31.4248ZM197.634 29.581C198.436 29.581 199.12 29.7787 199.686 30.1742C200.253 30.5697 200.653 31.0934 200.889 31.7454V29.6932H202.716V38.5273H200.889V36.4751C200.653 37.1271 200.253 37.6509 199.686 38.0463C199.12 38.4418 198.436 38.6396 197.634 38.6396C196.864 38.6396 196.175 38.4579 195.566 38.0944C194.967 37.731 194.497 37.2073 194.155 36.5232C193.813 35.8391 193.642 35.0322 193.642 34.1022C193.642 33.183 193.813 32.3814 194.155 31.6973C194.497 31.0132 194.967 30.4895 195.566 30.1261C196.175 29.7627 196.864 29.581 197.634 29.581ZM198.195 31.1843C197.383 31.1843 196.731 31.4461 196.239 31.9699C195.758 32.4829 195.518 33.1937 195.518 34.1022C195.518 35.0108 195.758 35.7269 196.239 36.2507C196.731 36.7637 197.383 37.0202 198.195 37.0202C198.708 37.0202 199.168 36.9027 199.574 36.6675C199.98 36.4217 200.301 36.0796 200.536 35.6414C200.771 35.2032 200.889 34.6901 200.889 34.1022C200.889 33.5251 200.771 33.0174 200.536 32.5791C200.301 32.1302 199.98 31.7882 199.574 31.553C199.168 31.3072 198.708 31.1843 198.195 31.1843ZM213.054 29.6932V38.5273H211.211V36.6034C210.986 37.2554 210.596 37.7631 210.04 38.1265C209.484 38.4792 208.838 38.6556 208.1 38.6556C207.074 38.6556 206.251 38.3243 205.631 37.6616C205.011 36.9989 204.701 36.0529 204.701 34.8237V29.6932H206.529V34.6313C206.529 35.433 206.732 36.0529 207.138 36.4912C207.544 36.9187 208.1 37.1325 208.806 37.1325C209.532 37.1325 210.115 36.8973 210.553 36.427C210.991 35.9567 211.211 35.2727 211.211 34.3748V29.6932H213.054ZM218.787 29.581C219.588 29.581 220.272 29.7787 220.839 30.1742C221.405 30.5697 221.801 31.0934 222.025 31.7454V26.663H223.869V38.5273H222.025V36.4751C221.801 37.1271 221.405 37.6509 220.839 38.0463C220.272 38.4418 219.588 38.6396 218.787 38.6396C218.017 38.6396 217.328 38.4579 216.718 38.0944C216.12 37.731 215.65 37.2073 215.308 36.5232C214.965 35.8391 214.794 35.0322 214.794 34.1022C214.794 33.183 214.965 32.3814 215.308 31.6973C215.65 31.0132 216.12 30.4895 216.718 30.1261C217.328 29.7627 218.017 29.581 218.787 29.581ZM219.348 31.1843C218.535 31.1843 217.883 31.4461 217.392 31.9699C216.911 32.4829 216.67 33.1937 216.67 34.1022C216.67 35.0108 216.911 35.7269 217.392 36.2507C217.883 36.7637 218.535 37.0202 219.348 37.0202C219.861 37.0202 220.32 36.9027 220.727 36.6675C221.133 36.4217 221.453 36.0796 221.689 35.6414C221.924 35.2032 222.041 34.6901 222.041 34.1022C222.041 33.5251 221.924 33.0174 221.689 32.5791C221.453 32.1302 221.133 31.7882 220.727 31.553C220.32 31.3072 219.861 31.1843 219.348 31.1843ZM225.806 27.1279C225.806 26.818 225.913 26.5614 226.127 26.3584C226.34 26.1553 226.624 26.0537 226.976 26.0537C227.329 26.0537 227.612 26.1553 227.826 26.3584C228.051 26.5614 228.163 26.818 228.163 27.1279C228.163 27.4379 228.051 27.6891 227.826 27.8815C227.612 28.0739 227.329 28.1701 226.976 28.1701C226.624 28.1701 226.34 28.0739 226.127 27.8815C225.913 27.6891 225.806 27.4379 225.806 27.1279ZM227.89 29.6932V38.5273H226.062V29.6932H227.89ZM238.311 33.6854C238.311 33.9847 238.289 34.2465 238.247 34.471H231.449C231.481 35.3795 231.732 36.0529 232.202 36.4912C232.673 36.9294 233.255 37.1485 233.95 37.1485C234.559 37.1485 235.072 36.9935 235.489 36.6835C235.917 36.3736 236.178 35.9621 236.275 35.449H238.231C238.113 36.069 237.867 36.6194 237.493 37.1004C237.119 37.5814 236.633 37.9608 236.034 38.2387C235.436 38.506 234.768 38.6396 234.03 38.6396C233.175 38.6396 232.416 38.4579 231.753 38.0944C231.101 37.731 230.588 37.2073 230.214 36.5232C229.84 35.8391 229.653 35.0322 229.653 34.1022C229.653 33.183 229.84 32.3814 230.214 31.6973C230.588 31.0132 231.101 30.4895 231.753 30.1261C232.416 29.7627 233.175 29.581 234.03 29.581C234.896 29.581 235.649 29.7627 236.291 30.1261C236.943 30.4788 237.44 30.9705 237.782 31.6011C238.134 32.2211 238.311 32.9158 238.311 33.6854ZM236.467 33.6373C236.488 33.0601 236.387 32.5791 236.162 32.1943C235.949 31.7989 235.649 31.5103 235.265 31.3286C234.891 31.1362 234.479 31.04 234.03 31.04C233.314 31.04 232.715 31.2591 232.234 31.6973C231.753 32.1355 231.492 32.7822 231.449 33.6373H236.467ZM245.014 29.5489C246.04 29.5489 246.863 29.8802 247.483 30.5429C248.103 31.2056 248.413 32.1516 248.413 33.3808V38.5273H246.585V33.5732C246.585 32.7822 246.382 32.173 245.976 31.7454C245.57 31.3072 245.014 31.0881 244.308 31.0881C243.581 31.0881 242.999 31.3232 242.561 31.7935C242.122 32.2531 241.903 32.9318 241.903 33.8297V38.5273H240.076V29.6932H241.903V31.6332C242.139 30.9705 242.534 30.4574 243.09 30.094C243.646 29.7306 244.287 29.5489 245.014 29.5489ZM254.478 29.581C255.622 29.581 256.568 29.8856 257.316 30.4948C258.064 31.0934 258.529 31.9111 258.711 32.9479H256.771C256.664 32.3921 256.402 31.9592 255.985 31.6492C255.579 31.3286 255.066 31.1682 254.446 31.1682C253.741 31.1682 253.153 31.4194 252.683 31.9218C252.212 32.4134 251.977 33.1403 251.977 34.1022C251.977 35.0642 252.212 35.7964 252.683 36.2988C253.153 36.8011 253.741 37.0523 254.446 37.0523C255.066 37.0523 255.579 36.892 255.985 36.5713C256.402 36.2507 256.664 35.8124 256.771 35.2566H258.711C258.529 36.2934 258.064 37.1164 257.316 37.7257C256.568 38.3349 255.622 38.6396 254.478 38.6396C253.623 38.6396 252.864 38.4579 252.202 38.0944C251.55 37.731 251.037 37.2073 250.662 36.5232C250.288 35.8391 250.101 35.0322 250.101 34.1022C250.101 33.183 250.288 32.3814 250.662 31.6973C251.037 31.0132 251.55 30.4895 252.202 30.1261C252.864 29.7627 253.623 29.581 254.478 29.581ZM268.686 33.6854C268.686 33.9847 268.664 34.2465 268.622 34.471H261.824C261.856 35.3795 262.107 36.0529 262.577 36.4912C263.047 36.9294 263.63 37.1485 264.325 37.1485C264.934 37.1485 265.447 36.9935 265.864 36.6835C266.291 36.3736 266.553 35.9621 266.65 35.449H268.606C268.488 36.069 268.242 36.6194 267.868 37.1004C267.494 37.5814 267.008 37.9608 266.409 38.2387C265.81 38.506 265.142 38.6396 264.405 38.6396C263.55 38.6396 262.791 38.4579 262.128 38.0944C261.476 37.731 260.963 37.2073 260.589 36.5232C260.215 35.8391 260.028 35.0322 260.028 34.1022C260.028 33.183 260.215 32.3814 260.589 31.6973C260.963 31.0132 261.476 30.4895 262.128 30.1261C262.791 29.7627 263.55 29.581 264.405 29.581C265.271 29.581 266.024 29.7627 266.666 30.1261C267.318 30.4788 267.815 30.9705 268.157 31.6011C268.509 32.2211 268.686 32.9158 268.686 33.6854ZM266.842 33.6373C266.863 33.0601 266.762 32.5791 266.537 32.1943C266.324 31.7989 266.024 31.5103 265.639 31.3286C265.265 31.1362 264.854 31.04 264.405 31.04C263.689 31.04 263.09 31.2591 262.609 31.6973C262.128 32.1355 261.866 32.7822 261.824 33.6373H266.842ZM275.196 36.5072V38.5273H273.128V36.5072H275.196ZM278.499 36.5072V38.5273H276.431V36.5072H278.499ZM271.893 36.5072V38.5273H269.825V36.5072H271.893ZM281.538 36.5072V38.5273H279.47V36.5072H281.538Z" fill="white"/>
<mask id="mask0_0_7505" style="mask-type:alpha" maskUnits="userSpaceOnUse" x="0" y="0" width="394" height="39">
<path d="M8.14473 1.15461V2.62964H4.98625V12.4738H3.14246V2.62964H9.79527e-06V1.15461H8.14473ZM14.4467 3.49542C15.4728 3.49542 16.2958 3.82676 16.9157 4.48946C17.5357 5.15215 17.8456 6.09809 17.8456 7.32728V12.4738H16.0179V7.51968C16.0179 6.72872 15.8148 6.11947 15.4086 5.69193C15.0025 5.25369 14.4467 5.03458 13.7412 5.03458C13.0144 5.03458 12.4319 5.26973 11.9936 5.74003C11.5554 6.19964 11.3363 6.87836 11.3363 7.77621V12.4738H9.50853V0.609493H11.3363V5.5797C11.5714 4.917 11.9669 4.40395 12.5227 4.04054C13.0785 3.67712 13.7198 3.49542 14.4467 3.49542ZM28.192 7.63191C28.192 7.93119 28.1706 8.19306 28.1279 8.41752H21.3299C21.362 9.32605 21.6132 9.99944 22.0835 10.4377C22.5538 10.8759 23.1363 11.095 23.8311 11.095C24.4403 11.095 24.9534 10.94 25.3702 10.6301C25.7978 10.3201 26.0596 9.90858 26.1558 9.39553H28.1118C27.9943 10.0155 27.7484 10.5659 27.3743 11.0469C27.0002 11.5279 26.5139 11.9074 25.9153 12.1853C25.3168 12.4525 24.6487 12.5861 23.9112 12.5861C23.0561 12.5861 22.2972 12.4044 21.6345 12.041C20.9825 11.6775 20.4695 11.1538 20.0954 10.4697C19.7213 9.78566 19.5342 8.97867 19.5342 8.04877C19.5342 7.12954 19.7213 6.3279 20.0954 5.64383C20.4695 4.95976 20.9825 4.43602 21.6345 4.0726C22.2972 3.70919 23.0561 3.52748 23.9112 3.52748C24.777 3.52748 25.5305 3.70919 26.1719 4.0726C26.8239 4.42533 27.3209 4.917 27.6629 5.54763C28.0156 6.16757 28.192 6.86233 28.192 7.63191ZM26.3482 7.58381C26.3696 7.00663 26.2681 6.52564 26.0436 6.14085C25.8298 5.74537 25.5305 5.45678 25.1458 5.27507C24.7717 5.08268 24.3601 4.98648 23.9112 4.98648C23.1951 4.98648 22.5965 5.2056 22.1155 5.64383C21.6345 6.08206 21.3727 6.72872 21.3299 7.58381H26.3482ZM37.7548 3.52748C38.6099 3.52748 39.3794 3.70919 40.0635 4.0726C40.7476 4.43602 41.282 4.95976 41.6668 5.64383C42.0516 6.3279 42.244 7.12954 42.244 8.04877C42.244 8.97867 42.0516 9.78566 41.6668 10.4697C41.282 11.1538 40.7476 11.6775 40.0635 12.041C39.3794 12.4044 38.6099 12.5861 37.7548 12.5861C36.8997 12.5861 36.1301 12.4044 35.446 12.041C34.7726 11.6775 34.2382 11.1538 33.8427 10.4697C33.4579 9.77498 33.2656 8.96799 33.2656 8.04877C33.2656 7.12954 33.4579 6.3279 33.8427 5.64383C34.2382 4.95976 34.7726 4.43602 35.446 4.0726C36.1301 3.70919 36.8997 3.52748 37.7548 3.52748ZM37.7548 5.11474C37.2845 5.11474 36.8516 5.22163 36.4561 5.4354C36.0606 5.64917 35.74 5.98052 35.4941 6.42944C35.259 6.86767 35.1414 7.40745 35.1414 8.04877C35.1414 8.70077 35.259 9.24589 35.4941 9.68412C35.74 10.1224 36.0606 10.4484 36.4561 10.6621C36.8516 10.8759 37.2845 10.9828 37.7548 10.9828C38.2251 10.9828 38.658 10.8759 39.0534 10.6621C39.4489 10.4484 39.7642 10.1224 39.9994 9.68412C40.2452 9.24589 40.3681 8.70077 40.3681 8.04877C40.3681 7.40745 40.2452 6.86767 39.9994 6.42944C39.7642 5.98052 39.4489 5.64917 39.0534 5.4354C38.658 5.22163 38.2251 5.11474 37.7548 5.11474ZM48.9394 3.49542C49.9655 3.49542 50.7885 3.82676 51.4084 4.48946C52.0284 5.15215 52.3383 6.09809 52.3383 7.32728V12.4738H50.5106V7.51968C50.5106 6.72872 50.3075 6.11947 49.9013 5.69193C49.4952 5.25369 48.9394 5.03458 48.2339 5.03458C47.5071 5.03458 46.9245 5.26973 46.4863 5.74003C46.0481 6.19964 45.829 6.87836 45.829 7.77621V12.4738H44.0012V3.63971H45.829V5.5797C46.0641 4.917 46.4596 4.40395 47.0154 4.04054C47.5712 3.67712 48.2125 3.49542 48.9394 3.49542ZM56.3036 0.609493V12.4738H54.4758V0.609493H56.3036ZM58.2589 1.07445C58.2589 0.764478 58.3657 0.507951 58.5795 0.304867C58.7933 0.101784 59.0765 0.000241776 59.4293 0.000241776C59.782 0.000241776 60.0652 0.101784 60.279 0.304867C60.5035 0.507951 60.6157 0.764478 60.6157 1.07445C60.6157 1.38442 60.5035 1.6356 60.279 1.82799C60.0652 2.02039 59.782 2.11659 59.4293 2.11659C59.0765 2.11659 58.7933 2.02039 58.5795 1.82799C58.3657 1.6356 58.2589 1.38442 58.2589 1.07445ZM60.3431 3.63971V12.4738H58.5154V3.63971H60.3431ZM67.4931 3.49542C68.5192 3.49542 69.3422 3.82676 69.9621 4.48946C70.5821 5.15215 70.892 6.09809 70.892 7.32728V12.4738H69.0643V7.51968C69.0643 6.72872 68.8612 6.11947 68.455 5.69193C68.0489 5.25369 67.4931 5.03458 66.7876 5.03458C66.0608 5.03458 65.4783 5.26973 65.04 5.74003C64.6018 6.19964 64.3827 6.87836 64.3827 7.77621V12.4738H62.5549V3.63971H64.3827V5.5797C64.6178 4.917 65.0133 4.40395 65.5691 4.04054C66.1249 3.67712 66.7662 3.49542 67.4931 3.49542ZM81.2384 7.63191C81.2384 7.93119 81.217 8.19306 81.1743 8.41752H74.3763C74.4084 9.32605 74.6596 9.99944 75.1299 10.4377C75.6002 10.8759 76.1827 11.095 76.8775 11.095C77.4867 11.095 77.9998 10.94 78.4166 10.6301C78.8442 10.3201 79.106 9.90858 79.2022 9.39553H81.1582C81.0407 10.0155 80.7948 10.5659 80.4207 11.0469C80.0466 11.5279 79.5603 11.9074 78.9617 12.1853C78.3632 12.4525 77.6951 12.5861 76.9576 12.5861C76.1025 12.5861 75.3436 12.4044 74.6809 12.041C74.0289 11.6775 73.5159 11.1538 73.1418 10.4697C72.7677 9.78566 72.5806 8.97867 72.5806 8.04877C72.5806 7.12954 72.7677 6.3279 73.1418 5.64383C73.5159 4.95976 74.0289 4.43602 74.6809 4.0726C75.3436 3.70919 76.1025 3.52748 76.9576 3.52748C77.8234 3.52748 78.5769 3.70919 79.2183 4.0726C79.8703 4.42533 80.3673 4.917 80.7093 5.54763C81.062 6.16757 81.2384 6.86233 81.2384 7.63191ZM79.3946 7.58381C79.416 7.00663 79.3145 6.52564 79.09 6.14085C78.8762 5.74537 78.5769 5.45678 78.1922 5.27507C77.8181 5.08268 77.4065 4.98648 76.9576 4.98648C76.2415 4.98648 75.6429 5.2056 75.1619 5.64383C74.6809 6.08206 74.4191 6.72872 74.3763 7.58381H79.3946ZM91.8273 3.52748C92.5969 3.52748 93.2809 3.70919 93.8795 4.0726C94.4887 4.43602 94.9644 4.95976 95.3064 5.64383C95.6484 6.3279 95.8195 7.12954 95.8195 8.04877C95.8195 8.97867 95.6484 9.78566 95.3064 10.4697C94.9644 11.1538 94.4887 11.6775 93.8795 12.041C93.2809 12.4044 92.5969 12.5861 91.8273 12.5861C91.0256 12.5861 90.3416 12.3883 89.7751 11.9929C89.2086 11.5974 88.8131 11.0736 88.5886 10.4216V16.6745H86.7609V3.63971H88.5886V5.69193C88.8131 5.03992 89.2086 4.51618 89.7751 4.1207C90.3416 3.72522 91.0256 3.52748 91.8273 3.52748ZM91.2661 5.13077C90.7531 5.13077 90.2935 5.25369 89.8873 5.49953C89.4811 5.73468 89.1605 6.07672 88.9253 6.52564C88.6902 6.96387 88.5726 7.47158 88.5726 8.04877C88.5726 8.63664 88.6902 9.14969 88.9253 9.58793C89.1605 10.0262 89.4811 10.3682 89.8873 10.614C90.2935 10.8492 90.7531 10.9668 91.2661 10.9668C92.0785 10.9668 92.7305 10.7102 93.2221 10.1972C93.7138 9.67343 93.9596 8.9573 93.9596 8.04877C93.9596 7.15092 93.7138 6.44013 93.2221 5.91639C92.7305 5.39265 92.0785 5.13077 91.2661 5.13077ZM99.4077 0.609493V12.4738H97.58V0.609493H99.4077ZM105.163 3.52748C105.964 3.52748 106.648 3.72522 107.215 4.1207C107.781 4.51618 108.182 5.03992 108.417 5.69193V3.63971H110.245V12.4738H108.417V10.4216C108.182 11.0736 107.781 11.5974 107.215 11.9929C106.648 12.3883 105.964 12.5861 105.163 12.5861C104.393 12.5861 103.704 12.4044 103.095 12.041C102.496 11.6775 102.026 11.1538 101.684 10.4697C101.342 9.78566 101.171 8.97867 101.171 8.04877C101.171 7.12954 101.342 6.3279 101.684 5.64383C102.026 4.95976 102.496 4.43602 103.095 4.0726C103.704 3.70919 104.393 3.52748 105.163 3.52748ZM105.724 5.13077C104.912 5.13077 104.26 5.39265 103.768 5.91639C103.287 6.42944 103.046 7.14023 103.046 8.04877C103.046 8.9573 103.287 9.67343 103.768 10.1972C104.26 10.7102 104.912 10.9668 105.724 10.9668C106.237 10.9668 106.697 10.8492 107.103 10.614C107.509 10.3682 107.83 10.0262 108.065 9.58793C108.3 9.14969 108.417 8.63664 108.417 8.04877C108.417 7.47158 108.3 6.96387 108.065 6.52564C107.83 6.07672 107.509 5.73468 107.103 5.49953C106.697 5.25369 106.237 5.13077 105.724 5.13077ZM116.88 10.8866V12.4738H115.757C114.817 12.4738 114.101 12.2494 113.609 11.8005C113.128 11.3409 112.888 10.582 112.888 9.52379V5.19491H111.621V3.63971H112.888V1.4432H114.731V3.63971H116.864V5.19491H114.731V9.55586C114.731 10.0582 114.822 10.4056 115.004 10.598C115.196 10.7904 115.528 10.8866 115.998 10.8866H116.88ZM122.712 1.81196C121.996 1.7799 121.494 1.89747 121.205 2.16469C120.917 2.42121 120.772 2.86479 120.772 3.49542V3.63971H122.712V5.21094H120.772V12.4738H118.929V5.21094H117.726V3.63971H118.929V3.35112C118.929 2.27157 119.244 1.46458 119.874 0.930151C120.505 0.385032 121.451 0.144538 122.712 0.20867V1.81196ZM128.222 3.52748C129.077 3.52748 129.846 3.70919 130.53 4.0726C131.215 4.43602 131.749 4.95976 132.134 5.64383C132.519 6.3279 132.711 7.12954 132.711 8.04877C132.711 8.97867 132.519 9.78566 132.134 10.4697C131.749 11.1538 131.215 11.6775 130.53 12.041C129.846 12.4044 129.077 12.5861 128.222 12.5861C127.367 12.5861 126.597 12.4044 125.913 12.041C125.24 11.6775 124.705 11.1538 124.31 10.4697C123.925 9.77498 123.733 8.96799 123.733 8.04877C123.733 7.12954 123.925 6.3279 124.31 5.64383C124.705 4.95976 125.24 4.43602 125.913 4.0726C126.597 3.70919 127.367 3.52748 128.222 3.52748ZM128.222 5.11474C127.751 5.11474 127.319 5.22163 126.923 5.4354C126.528 5.64917 126.207 5.98052 125.961 6.42944C125.726 6.86767 125.608 7.40745 125.608 8.04877C125.608 8.70077 125.726 9.24589 125.961 9.68412C126.207 10.1224 126.528 10.4484 126.923 10.6621C127.319 10.8759 127.751 10.9828 128.222 10.9828C128.692 10.9828 129.125 10.8759 129.52 10.6621C129.916 10.4484 130.231 10.1224 130.466 9.68412C130.712 9.24589 130.835 8.70077 130.835 8.04877C130.835 7.40745 130.712 6.86767 130.466 6.42944C130.231 5.98052 129.916 5.64917 129.52 5.4354C129.125 5.22163 128.692 5.11474 128.222 5.11474ZM136.296 5.37127C136.595 4.79408 137.023 4.33982 137.579 4.00847C138.134 3.66644 138.776 3.49542 139.503 3.49542V5.4835H138.957C138.156 5.4835 137.509 5.68124 137.017 6.07672C136.536 6.46151 136.296 7.10282 136.296 8.00067V12.4738H134.468V3.63971H136.296V5.37127ZM151.919 3.49542C152.966 3.49542 153.8 3.82676 154.42 4.48946C155.05 5.15215 155.366 6.09809 155.366 7.32728V12.4738H153.538V7.51968C153.538 6.7501 153.346 6.15688 152.961 5.74003C152.576 5.31248 152.047 5.09871 151.374 5.09871C150.657 5.09871 150.086 5.32851 149.658 5.78812C149.241 6.23705 149.033 6.89974 149.033 7.77621V12.4738H147.205V7.51968C147.205 6.7501 147.013 6.15688 146.628 5.74003C146.243 5.31248 145.714 5.09871 145.041 5.09871C144.324 5.09871 143.753 5.32851 143.325 5.78812C142.908 6.23705 142.7 6.89974 142.7 7.77621V12.4738H140.872V3.63971H142.7V5.4835C142.924 4.84218 143.298 4.35051 143.822 4.00847C144.346 3.66644 144.96 3.49542 145.666 3.49542C146.403 3.49542 147.039 3.67712 147.574 4.04054C148.119 4.40395 148.514 4.92769 148.76 5.61176C149.017 4.94907 149.428 4.43067 149.995 4.05657C150.561 3.68247 151.202 3.49542 151.919 3.49542ZM165.699 10.8866V12.4738H164.576C163.636 12.4738 162.92 12.2494 162.428 11.8005C161.947 11.3409 161.706 10.582 161.706 9.52379V5.19491H160.44V3.63971H161.706V1.4432H163.55V3.63971H165.683V5.19491H163.55V9.55586C163.55 10.0582 163.641 10.4056 163.823 10.598C164.015 10.7904 164.347 10.8866 164.817 10.8866H165.699ZM172.349 3.49542C173.375 3.49542 174.198 3.82676 174.818 4.48946C175.438 5.15215 175.748 6.09809 175.748 7.32728V12.4738H173.92V7.51968C173.92 6.72872 173.717 6.11947 173.311 5.69193C172.905 5.25369 172.349 5.03458 171.643 5.03458C170.917 5.03458 170.334 5.26973 169.896 5.74003C169.458 6.19964 169.239 6.87836 169.239 7.77621V12.4738H167.411V0.609493H169.239V5.5797C169.474 4.917 169.869 4.40395 170.425 4.04054C170.981 3.67712 171.622 3.49542 172.349 3.49542ZM181.429 3.52748C182.23 3.52748 182.914 3.72522 183.481 4.1207C184.047 4.51618 184.448 5.03992 184.683 5.69193V3.63971H186.511V12.4738H184.683V10.4216C184.448 11.0736 184.047 11.5974 183.481 11.9929C182.914 12.3883 182.23 12.5861 181.429 12.5861C180.659 12.5861 179.97 12.4044 179.36 12.041C178.762 11.6775 178.292 11.1538 177.95 10.4697C177.608 9.78566 177.437 8.97867 177.437 8.04877C177.437 7.12954 177.608 6.3279 177.95 5.64383C178.292 4.95976 178.762 4.43602 179.36 4.0726C179.97 3.70919 180.659 3.52748 181.429 3.52748ZM181.99 5.13077C181.178 5.13077 180.526 5.39265 180.034 5.91639C179.553 6.42944 179.312 7.14023 179.312 8.04877C179.312 8.9573 179.553 9.67343 180.034 10.1972C180.526 10.7102 181.178 10.9668 181.99 10.9668C182.503 10.9668 182.963 10.8492 183.369 10.614C183.775 10.3682 184.096 10.0262 184.331 9.58793C184.566 9.14969 184.683 8.63664 184.683 8.04877C184.683 7.47158 184.566 6.96387 184.331 6.52564C184.096 6.07672 183.775 5.73468 183.369 5.49953C182.963 5.25369 182.503 5.13077 181.99 5.13077ZM193.146 10.8866V12.4738H192.023C191.083 12.4738 190.367 12.2494 189.875 11.8005C189.394 11.3409 189.153 10.582 189.153 9.52379V5.19491H187.887V3.63971H189.153V1.4432H190.997V3.63971H193.13V5.19491H190.997V9.55586C190.997 10.0582 191.088 10.4056 191.27 10.598C191.462 10.7904 191.794 10.8866 192.264 10.8866H193.146ZM203.682 3.52748C204.451 3.52748 205.136 3.70919 205.734 4.0726C206.343 4.43602 206.819 4.95976 207.161 5.64383C207.503 6.3279 207.674 7.12954 207.674 8.04877C207.674 8.97867 207.503 9.78566 207.161 10.4697C206.819 11.1538 206.343 11.6775 205.734 12.041C205.136 12.4044 204.451 12.5861 203.682 12.5861C202.88 12.5861 202.196 12.3883 201.63 11.9929C201.063 11.5974 200.668 11.0736 200.443 10.4216V12.4738H198.615V0.609493H200.443V5.69193C200.668 5.03992 201.063 4.51618 201.63 4.1207C202.196 3.72522 202.88 3.52748 203.682 3.52748ZM203.121 5.13077C202.608 5.13077 202.148 5.25369 201.742 5.49953C201.336 5.73468 201.015 6.07672 200.78 6.52564C200.545 6.96387 200.427 7.47158 200.427 8.04877C200.427 8.63664 200.545 9.14969 200.78 9.58793C201.015 10.0262 201.336 10.3682 201.742 10.614C202.148 10.8492 202.608 10.9668 203.121 10.9668C203.933 10.9668 204.585 10.7102 205.077 10.1972C205.568 9.67343 205.814 8.9573 205.814 8.04877C205.814 7.15092 205.568 6.44013 205.077 5.91639C204.585 5.39265 203.933 5.13077 203.121 5.13077ZM211.262 5.37127C211.562 4.79408 211.989 4.33982 212.545 4.00847C213.101 3.66644 213.742 3.49542 214.469 3.49542V5.4835H213.924C213.122 5.4835 212.475 5.68124 211.984 6.07672C211.503 6.46151 211.262 7.10282 211.262 8.00067V12.4738H209.435V3.63971H211.262V5.37127ZM215.582 1.07445C215.582 0.764478 215.689 0.507951 215.902 0.304867C216.116 0.101784 216.4 0.000241776 216.752 0.000241776C217.105 0.000241776 217.388 0.101784 217.602 0.304867C217.826 0.507951 217.939 0.764478 217.939 1.07445C217.939 1.38442 217.826 1.6356 217.602 1.82799C217.388 2.02039 217.105 2.11659 216.752 2.11659C216.4 2.11659 216.116 2.02039 215.902 1.82799C215.689 1.6356 215.582 1.38442 215.582 1.07445ZM217.666 3.63971V12.4738H215.838V3.63971H217.666ZM224.816 3.49542C225.842 3.49542 226.665 3.82676 227.285 4.48946C227.905 5.15215 228.215 6.09809 228.215 7.32728V12.4738H226.387V7.51968C226.387 6.72872 226.184 6.11947 225.778 5.69193C225.372 5.25369 224.816 5.03458 224.111 5.03458C223.384 5.03458 222.801 5.26973 222.363 5.74003C221.925 6.19964 221.706 6.87836 221.706 7.77621V12.4738H219.878V3.63971H221.706V5.5797C221.941 4.917 222.336 4.40395 222.892 4.04054C223.448 3.67712 224.089 3.49542 224.816 3.49542ZM233.896 3.52748C234.697 3.52748 235.382 3.72522 235.948 4.1207C236.515 4.51618 236.915 5.03992 237.15 5.69193V3.63971H238.978V12.57C238.978 13.3931 238.807 14.1199 238.465 14.7505C238.134 15.3918 237.653 15.8942 237.022 16.2576C236.392 16.621 235.643 16.8027 234.778 16.8027C233.538 16.8027 232.533 16.5088 231.763 15.9209C231.005 15.3331 230.529 14.5368 230.336 13.532H232.148C232.298 14.0558 232.586 14.4619 233.014 14.7505C233.442 15.0498 233.987 15.1994 234.649 15.1994C235.376 15.1994 235.975 14.975 236.445 14.5261C236.915 14.0771 237.15 13.4251 237.15 12.57V10.4216C236.915 11.0736 236.515 11.5974 235.948 11.9929C235.382 12.3883 234.697 12.5861 233.896 12.5861C233.126 12.5861 232.437 12.4044 231.828 12.041C231.229 11.6775 230.759 11.1538 230.417 10.4697C230.075 9.78566 229.904 8.97867 229.904 8.04877C229.904 7.12954 230.075 6.3279 230.417 5.64383C230.759 4.95976 231.229 4.43602 231.828 4.0726C232.437 3.70919 233.126 3.52748 233.896 3.52748ZM234.457 5.13077C233.645 5.13077 232.993 5.39265 232.501 5.91639C232.02 6.42944 231.779 7.14023 231.779 8.04877C231.779 8.9573 232.02 9.67343 232.501 10.1972C232.993 10.7102 233.645 10.9668 234.457 10.9668C234.97 10.9668 235.43 10.8492 235.836 10.614C236.242 10.3682 236.563 10.0262 236.798 9.58793C237.033 9.14969 237.15 8.63664 237.15 8.04877C237.15 7.47158 237.033 6.96387 236.798 6.52564C236.563 6.07672 236.242 5.73468 235.836 5.49953C235.43 5.25369 234.97 5.13077 234.457 5.13077ZM244.074 3.52748C245.11 3.52748 245.939 3.7947 246.559 4.32913C247.189 4.85287 247.574 5.55832 247.713 6.44547H245.981C245.907 5.96449 245.698 5.5797 245.356 5.2911C245.025 4.99182 244.581 4.84218 244.025 4.84218C243.566 4.84218 243.208 4.95441 242.951 5.17887C242.705 5.39265 242.583 5.68658 242.583 6.06068C242.583 6.33859 242.673 6.56305 242.855 6.73407C243.037 6.90508 243.261 7.03869 243.528 7.13489C243.806 7.23109 244.196 7.33797 244.699 7.45555C245.362 7.60519 245.896 7.76017 246.302 7.9205C246.719 8.08083 247.072 8.33736 247.36 8.69008C247.66 9.03212 247.809 9.50242 247.809 10.101C247.809 10.8385 247.526 11.4371 246.959 11.8967C246.404 12.3563 245.65 12.5861 244.699 12.5861C243.598 12.5861 242.705 12.3296 242.021 11.8165C241.348 11.3034 240.942 10.5873 240.803 9.66809H242.583C242.636 10.1491 242.85 10.5392 243.224 10.8385C243.598 11.1378 244.09 11.2874 244.699 11.2874C245.137 11.2874 245.479 11.1752 245.725 10.9507C245.981 10.7156 246.11 10.4216 246.11 10.0689C246.11 9.75894 246.014 9.5131 245.821 9.3314C245.629 9.14969 245.388 9.01074 245.1 8.91454C244.811 8.80766 244.416 8.70077 243.913 8.59388C243.272 8.44424 242.748 8.2946 242.342 8.14496C241.947 7.99532 241.604 7.75483 241.316 7.42348C241.038 7.08145 240.899 6.62184 240.899 6.04465C240.899 5.29645 241.177 4.69254 241.733 4.23293C242.299 3.76263 243.08 3.52748 244.074 3.52748ZM257.841 10.8866V12.4738H256.719C255.778 12.4738 255.062 12.2494 254.57 11.8005C254.089 11.3409 253.849 10.582 253.849 9.52379V5.19491H252.582V3.63971H253.849V1.4432H255.693V3.63971H257.825V5.19491H255.693V9.55586C255.693 10.0582 255.783 10.4056 255.965 10.598C256.157 10.7904 256.489 10.8866 256.959 10.8866H257.841ZM263.593 3.52748C264.448 3.52748 265.218 3.70919 265.902 4.0726C266.586 4.43602 267.121 4.95976 267.505 5.64383C267.89 6.3279 268.083 7.12954 268.083 8.04877C268.083 8.97867 267.89 9.78566 267.505 10.4697C267.121 11.1538 266.586 11.6775 265.902 12.041C265.218 12.4044 264.448 12.5861 263.593 12.5861C262.738 12.5861 261.969 12.4044 261.285 12.041C260.611 11.6775 260.077 11.1538 259.681 10.4697C259.297 9.77498 259.104 8.96799 259.104 8.04877C259.104 7.12954 259.297 6.3279 259.681 5.64383C260.077 4.95976 260.611 4.43602 261.285 4.0726C261.969 3.70919 262.738 3.52748 263.593 3.52748ZM263.593 5.11474C263.123 5.11474 262.69 5.22163 262.295 5.4354C261.899 5.64917 261.579 5.98052 261.333 6.42944C261.098 6.86767 260.98 7.40745 260.98 8.04877C260.98 8.70077 261.098 9.24589 261.333 9.68412C261.579 10.1224 261.899 10.4484 262.295 10.6621C262.69 10.8759 263.123 10.9828 263.593 10.9828C264.064 10.9828 264.497 10.8759 264.892 10.6621C265.288 10.4484 265.603 10.1224 265.838 9.68412C266.084 9.24589 266.207 8.70077 266.207 8.04877C266.207 7.40745 266.084 6.86767 265.838 6.42944C265.603 5.98052 265.288 5.64917 264.892 5.4354C264.497 5.22163 264.064 5.11474 263.593 5.11474ZM273.383 3.52748C274.185 3.52748 274.869 3.72522 275.435 4.1207C276.002 4.51618 276.403 5.03992 276.638 5.69193V3.63971H278.466V12.57C278.466 13.3931 278.295 14.1199 277.952 14.7505C277.621 15.3918 277.14 15.8942 276.51 16.2576C275.879 16.621 275.131 16.8027 274.265 16.8027C273.025 16.8027 272.02 16.5088 271.251 15.9209C270.492 15.3331 270.016 14.5368 269.824 13.532H271.636C271.785 14.0558 272.074 14.4619 272.501 14.7505C272.929 15.0498 273.474 15.1994 274.137 15.1994C274.863 15.1994 275.462 14.975 275.932 14.5261C276.403 14.0771 276.638 13.4251 276.638 12.57V10.4216C276.403 11.0736 276.002 11.5974 275.435 11.9929C274.869 12.3883 274.185 12.5861 273.383 12.5861C272.614 12.5861 271.924 12.4044 271.315 12.041C270.716 11.6775 270.246 11.1538 269.904 10.4697C269.562 9.78566 269.391 8.97867 269.391 8.04877C269.391 7.12954 269.562 6.3279 269.904 5.64383C270.246 4.95976 270.716 4.43602 271.315 4.0726C271.924 3.70919 272.614 3.52748 273.383 3.52748ZM273.944 5.13077C273.132 5.13077 272.48 5.39265 271.988 5.91639C271.507 6.42944 271.267 7.14023 271.267 8.04877C271.267 8.9573 271.507 9.67343 271.988 10.1972C272.48 10.7102 273.132 10.9668 273.944 10.9668C274.457 10.9668 274.917 10.8492 275.323 10.614C275.729 10.3682 276.05 10.0262 276.285 9.58793C276.52 9.14969 276.638 8.63664 276.638 8.04877C276.638 7.47158 276.52 6.96387 276.285 6.52564C276.05 6.07672 275.729 5.73468 275.323 5.49953C274.917 5.25369 274.457 5.13077 273.944 5.13077ZM288.868 7.63191C288.868 7.93119 288.846 8.19306 288.804 8.41752H282.006C282.038 9.32605 282.289 9.99944 282.759 10.4377C283.23 10.8759 283.812 11.095 284.507 11.095C285.116 11.095 285.629 10.94 286.046 10.6301C286.474 10.3201 286.735 9.90858 286.832 9.39553H288.788C288.67 10.0155 288.424 10.5659 288.05 11.0469C287.676 11.5279 287.19 11.9074 286.591 12.1853C285.993 12.4525 285.324 12.5861 284.587 12.5861C283.732 12.5861 282.973 12.4044 282.31 12.041C281.658 11.6775 281.145 11.1538 280.771 10.4697C280.397 9.78566 280.21 8.97867 280.21 8.04877C280.21 7.12954 280.397 6.3279 280.771 5.64383C281.145 4.95976 281.658 4.43602 282.31 4.0726C282.973 3.70919 283.732 3.52748 284.587 3.52748C285.453 3.52748 286.206 3.70919 286.848 4.0726C287.5 4.42533 287.997 4.917 288.339 5.54763C288.691 6.16757 288.868 6.86233 288.868 7.63191ZM287.024 7.58381C287.045 7.00663 286.944 6.52564 286.719 6.14085C286.506 5.74537 286.206 5.45678 285.822 5.27507C285.447 5.08268 285.036 4.98648 284.587 4.98648C283.871 4.98648 283.272 5.2056 282.791 5.64383C282.31 6.08206 282.048 6.72872 282.006 7.58381H287.024ZM295.074 10.8866V12.4738H293.951C293.011 12.4738 292.295 12.2494 291.803 11.8005C291.322 11.3409 291.081 10.582 291.081 9.52379V5.19491H289.815V3.63971H291.081V1.4432H292.925V3.63971H295.058V5.19491H292.925V9.55586C292.925 10.0582 293.016 10.4056 293.198 10.598C293.39 10.7904 293.722 10.8866 294.192 10.8866H295.074ZM301.724 3.49542C302.75 3.49542 303.573 3.82676 304.193 4.48946C304.813 5.15215 305.123 6.09809 305.123 7.32728V12.4738H303.295V7.51968C303.295 6.72872 303.092 6.11947 302.686 5.69193C302.28 5.25369 301.724 5.03458 301.018 5.03458C300.292 5.03458 299.709 5.26973 299.271 5.74003C298.833 6.19964 298.614 6.87836 298.614 7.77621V12.4738H296.786V0.609493H298.614V5.5797C298.849 4.917 299.244 4.40395 299.8 4.04054C300.356 3.67712 300.997 3.49542 301.724 3.49542ZM315.469 7.63191C315.469 7.93119 315.448 8.19306 315.405 8.41752H308.607C308.639 9.32605 308.89 9.99944 309.361 10.4377C309.831 10.8759 310.414 11.095 311.108 11.095C311.718 11.095 312.231 10.94 312.647 10.6301C313.075 10.3201 313.337 9.90858 313.433 9.39553H315.389C315.272 10.0155 315.026 10.5659 314.652 11.0469C314.277 11.5279 313.791 11.9074 313.193 12.1853C312.594 12.4525 311.926 12.5861 311.188 12.5861C310.333 12.5861 309.574 12.4044 308.912 12.041C308.26 11.6775 307.747 11.1538 307.373 10.4697C306.999 9.78566 306.811 8.97867 306.811 8.04877C306.811 7.12954 306.999 6.3279 307.373 5.64383C307.747 4.95976 308.26 4.43602 308.912 4.0726C309.574 3.70919 310.333 3.52748 311.188 3.52748C312.054 3.52748 312.808 3.70919 313.449 4.0726C314.101 4.42533 314.598 4.917 314.94 5.54763C315.293 6.16757 315.469 6.86233 315.469 7.63191ZM313.625 7.58381C313.647 7.00663 313.545 6.52564 313.321 6.14085C313.107 5.74537 312.808 5.45678 312.423 5.27507C312.049 5.08268 311.637 4.98648 311.188 4.98648C310.472 4.98648 309.874 5.2056 309.393 5.64383C308.912 6.08206 308.65 6.72872 308.607 7.58381H313.625ZM319.062 5.37127C319.361 4.79408 319.789 4.33982 320.344 4.00847C320.9 3.66644 321.542 3.49542 322.268 3.49542V5.4835H321.723C320.922 5.4835 320.275 5.68124 319.783 6.07672C319.302 6.46151 319.062 7.10282 319.062 8.00067V12.4738H317.234V3.63971H319.062V5.37127ZM331.324 3.52748C332.467 3.52748 333.413 3.83211 334.161 4.44136C334.91 5.03992 335.375 5.8576 335.556 6.8944H333.616C333.509 6.33859 333.248 5.9057 332.831 5.59573C332.424 5.27507 331.911 5.11474 331.291 5.11474C330.586 5.11474 329.998 5.36592 329.528 5.86829C329.058 6.35996 328.822 7.08679 328.822 8.04877C328.822 9.01074 329.058 9.74291 329.528 10.2453C329.998 10.7476 330.586 10.9988 331.291 10.9988C331.911 10.9988 332.424 10.8385 332.831 10.5178C333.248 10.1972 333.509 9.75894 333.616 9.20314H335.556C335.375 10.2399 334.91 11.063 334.161 11.6722C333.413 12.2815 332.467 12.5861 331.324 12.5861C330.468 12.5861 329.71 12.4044 329.047 12.041C328.395 11.6775 327.882 11.1538 327.508 10.4697C327.134 9.78566 326.947 8.97867 326.947 8.04877C326.947 7.12954 327.134 6.3279 327.508 5.64383C327.882 4.95976 328.395 4.43602 329.047 4.0726C329.71 3.70919 330.468 3.52748 331.324 3.52748ZM339.15 5.37127C339.449 4.79408 339.877 4.33982 340.433 4.00847C340.988 3.66644 341.63 3.49542 342.356 3.49542V5.4835H341.811C341.01 5.4835 340.363 5.68124 339.871 6.07672C339.39 6.46151 339.15 7.10282 339.15 8.00067V12.4738H337.322V3.63971H339.15V5.37127ZM351.935 7.63191C351.935 7.93119 351.913 8.19306 351.871 8.41752H345.073C345.105 9.32605 345.356 9.99944 345.826 10.4377C346.297 10.8759 346.879 11.095 347.574 11.095C348.183 11.095 348.696 10.94 349.113 10.6301C349.54 10.3201 349.802 9.90858 349.899 9.39553H351.855C351.737 10.0155 351.491 10.5659 351.117 11.0469C350.743 11.5279 350.257 11.9074 349.658 12.1853C349.06 12.4525 348.391 12.5861 347.654 12.5861C346.799 12.5861 346.04 12.4044 345.377 12.041C344.725 11.6775 344.212 11.1538 343.838 10.4697C343.464 9.78566 343.277 8.97867 343.277 8.04877C343.277 7.12954 343.464 6.3279 343.838 5.64383C344.212 4.95976 344.725 4.43602 345.377 4.0726C346.04 3.70919 346.799 3.52748 347.654 3.52748C348.52 3.52748 349.273 3.70919 349.915 4.0726C350.567 4.42533 351.064 4.917 351.406 5.54763C351.758 6.16757 351.935 6.86233 351.935 7.63191ZM350.091 7.58381C350.112 7.00663 350.011 6.52564 349.786 6.14085C349.573 5.74537 349.273 5.45678 348.888 5.27507C348.514 5.08268 348.103 4.98648 347.654 4.98648C346.938 4.98648 346.339 5.2056 345.858 5.64383C345.377 6.08206 345.115 6.72872 345.073 7.58381H350.091ZM357.243 3.52748C358.044 3.52748 358.728 3.72522 359.295 4.1207C359.861 4.51618 360.262 5.03992 360.497 5.69193V3.63971H362.325V12.4738H360.497V10.4216C360.262 11.0736 359.861 11.5974 359.295 11.9929C358.728 12.3883 358.044 12.5861 357.243 12.5861C356.473 12.5861 355.784 12.4044 355.175 12.041C354.576 11.6775 354.106 11.1538 353.764 10.4697C353.422 9.78566 353.251 8.97867 353.251 8.04877C353.251 7.12954 353.422 6.3279 353.764 5.64383C354.106 4.95976 354.576 4.43602 355.175 4.0726C355.784 3.70919 356.473 3.52748 357.243 3.52748ZM357.804 5.13077C356.992 5.13077 356.34 5.39265 355.848 5.91639C355.367 6.42944 355.126 7.14023 355.126 8.04877C355.126 8.9573 355.367 9.67343 355.848 10.1972C356.34 10.7102 356.992 10.9668 357.804 10.9668C358.317 10.9668 358.777 10.8492 359.183 10.614C359.589 10.3682 359.91 10.0262 360.145 9.58793C360.38 9.14969 360.497 8.63664 360.497 8.04877C360.497 7.47158 360.38 6.96387 360.145 6.52564C359.91 6.07672 359.589 5.73468 359.183 5.49953C358.777 5.25369 358.317 5.13077 357.804 5.13077ZM368.96 10.8866V12.4738H367.837C366.897 12.4738 366.181 12.2494 365.689 11.8005C365.208 11.3409 364.967 10.582 364.967 9.52379V5.19491H363.701V3.63971H364.967V1.4432H366.811V3.63971H368.944V5.19491H366.811V9.55586C366.811 10.0582 366.902 10.4056 367.084 10.598C367.276 10.7904 367.608 10.8866 368.078 10.8866H368.96ZM374.712 3.52748C375.567 3.52748 376.337 3.70919 377.021 4.0726C377.705 4.43602 378.239 4.95976 378.624 5.64383C379.009 6.3279 379.201 7.12954 379.201 8.04877C379.201 8.97867 379.009 9.78566 378.624 10.4697C378.239 11.1538 377.705 11.6775 377.021 12.041C376.337 12.4044 375.567 12.5861 374.712 12.5861C373.857 12.5861 373.087 12.4044 372.403 12.041C371.73 11.6775 371.196 11.1538 370.8 10.4697C370.415 9.77498 370.223 8.96799 370.223 8.04877C370.223 7.12954 370.415 6.3279 370.8 5.64383C371.196 4.95976 371.73 4.43602 372.403 4.0726C373.087 3.70919 373.857 3.52748 374.712 3.52748ZM374.712 5.11474C374.242 5.11474 373.809 5.22163 373.413 5.4354C373.018 5.64917 372.697 5.98052 372.451 6.42944C372.216 6.86767 372.099 7.40745 372.099 8.04877C372.099 8.70077 372.216 9.24589 372.451 9.68412C372.697 10.1224 373.018 10.4484 373.413 10.6621C373.809 10.8759 374.242 10.9828 374.712 10.9828C375.182 10.9828 375.615 10.8759 376.011 10.6621C376.406 10.4484 376.722 10.1224 376.957 9.68412C377.203 9.24589 377.325 8.70077 377.325 8.04877C377.325 7.40745 377.203 6.86767 376.957 6.42944C376.722 5.98052 376.406 5.64917 376.011 5.4354C375.615 5.22163 375.182 5.11474 374.712 5.11474ZM382.786 5.37127C383.086 4.79408 383.513 4.33982 384.069 4.00847C384.625 3.66644 385.266 3.49542 385.993 3.49542V5.4835H385.448C384.646 5.4835 383.999 5.68124 383.508 6.07672C383.027 6.46151 382.786 7.10282 382.786 8.00067V12.4738H380.959V3.63971H382.786V5.37127ZM390.264 3.52748C391.301 3.52748 392.129 3.7947 392.749 4.32913C393.38 4.85287 393.765 5.55832 393.904 6.44547H392.172C392.097 5.96449 391.889 5.5797 391.547 5.2911C391.216 4.99182 390.772 4.84218 390.216 4.84218C389.757 4.84218 389.399 4.95441 389.142 5.17887C388.896 5.39265 388.773 5.68658 388.773 6.06068C388.773 6.33859 388.864 6.56305 389.046 6.73407C389.228 6.90508 389.452 7.03869 389.719 7.13489C389.997 7.23109 390.387 7.33797 390.89 7.45555C391.552 7.60519 392.087 7.76017 392.493 7.9205C392.91 8.08083 393.262 8.33736 393.551 8.69008C393.85 9.03212 394 9.50242 394 10.101C394 10.8385 393.717 11.4371 393.15 11.8967C392.594 12.3563 391.841 12.5861 390.89 12.5861C389.789 12.5861 388.896 12.3296 388.212 11.8165C387.539 11.3034 387.133 10.5873 386.994 9.66809H388.773C388.827 10.1491 389.04 10.5392 389.415 10.8385C389.789 11.1378 390.28 11.2874 390.89 11.2874C391.328 11.2874 391.67 11.1752 391.916 10.9507C392.172 10.7156 392.3 10.4216 392.3 10.0689C392.3 9.75894 392.204 9.5131 392.012 9.3314C391.819 9.14969 391.579 9.01074 391.29 8.91454C391.002 8.80766 390.606 8.70077 390.104 8.59388C389.463 8.44424 388.939 8.2946 388.533 8.14496C388.137 7.99532 387.795 7.75483 387.507 7.42348C387.229 7.08145 387.09 6.62184 387.09 6.04465C387.09 5.29645 387.368 4.69254 387.923 4.23293C388.49 3.76263 389.27 3.52748 390.264 3.52748ZM124.058 36.0743H119.28L118.414 38.5273H116.458L120.627 27.3845H122.727L126.88 38.5273H124.924L124.058 36.0743ZM123.545 34.6634L121.669 29.3725L119.793 34.6634H123.545ZM133.175 29.5489C134.201 29.5489 135.024 29.8802 135.644 30.5429C136.264 31.2056 136.574 32.1516 136.574 33.3808V38.5273H134.746V33.5732C134.746 32.7822 134.543 32.173 134.137 31.7454C133.731 31.3072 133.175 31.0881 132.469 31.0881C131.743 31.0881 131.16 31.3232 130.722 31.7935C130.284 32.2531 130.064 32.9318 130.064 33.8297V38.5273H128.237V29.6932H130.064V31.6332C130.3 30.9705 130.695 30.4574 131.251 30.094C131.807 29.7306 132.448 29.5489 133.175 29.5489ZM142.255 29.581C143.056 29.581 143.74 29.7787 144.307 30.1742C144.873 30.5697 145.269 31.0934 145.493 31.7454V26.663H147.337V38.5273H145.493V36.4751C145.269 37.1271 144.873 37.6509 144.307 38.0463C143.74 38.4418 143.056 38.6396 142.255 38.6396C141.485 38.6396 140.796 38.4579 140.186 38.0944C139.588 37.731 139.117 37.2073 138.775 36.5232C138.433 35.8391 138.262 35.0322 138.262 34.1022C138.262 33.183 138.433 32.3814 138.775 31.6973C139.117 31.0132 139.588 30.4895 140.186 30.1261C140.796 29.7627 141.485 29.581 142.255 29.581ZM142.816 31.1843C142.003 31.1843 141.351 31.4461 140.86 31.9699C140.379 32.4829 140.138 33.1937 140.138 34.1022C140.138 35.0108 140.379 35.7269 140.86 36.2507C141.351 36.7637 142.003 37.0202 142.816 37.0202C143.329 37.0202 143.788 36.9027 144.195 36.6675C144.601 36.4217 144.921 36.0796 145.157 35.6414C145.392 35.2032 145.509 34.6901 145.509 34.1022C145.509 33.5251 145.392 33.0174 145.157 32.5791C144.921 32.1302 144.601 31.7882 144.195 31.553C143.788 31.3072 143.329 31.1843 142.816 31.1843ZM157.729 36.9401V38.5273H156.607C155.666 38.5273 154.95 38.3029 154.458 37.854C153.977 37.3943 153.737 36.6355 153.737 35.5773V31.2484H152.47V29.6932H153.737V27.4967H155.581V29.6932H157.713V31.2484H155.581V35.6093C155.581 36.1117 155.672 36.4591 155.853 36.6515C156.046 36.8439 156.377 36.9401 156.847 36.9401H157.729ZM164.379 29.5489C165.406 29.5489 166.229 29.8802 166.849 30.5429C167.468 31.2056 167.778 32.1516 167.778 33.3808V38.5273H165.951V33.5732C165.951 32.7822 165.748 32.173 165.341 31.7454C164.935 31.3072 164.379 31.0881 163.674 31.0881C162.947 31.0881 162.365 31.3232 161.926 31.7935C161.488 32.2531 161.269 32.9318 161.269 33.8297V38.5273H159.441V26.663H161.269V31.6332C161.504 30.9705 161.9 30.4574 162.456 30.094C163.011 29.7306 163.653 29.5489 164.379 29.5489ZM178.125 33.6854C178.125 33.9847 178.103 34.2465 178.061 34.471H171.263C171.295 35.3795 171.546 36.0529 172.016 36.4912C172.487 36.9294 173.069 37.1485 173.764 37.1485C174.373 37.1485 174.886 36.9935 175.303 36.6835C175.731 36.3736 175.992 35.9621 176.089 35.449H178.045C177.927 36.069 177.681 36.6194 177.307 37.1004C176.933 37.5814 176.447 37.9608 175.848 38.2387C175.25 38.506 174.582 38.6396 173.844 38.6396C172.989 38.6396 172.23 38.4579 171.567 38.0944C170.915 37.731 170.402 37.2073 170.028 36.5232C169.654 35.8391 169.467 35.0322 169.467 34.1022C169.467 33.183 169.654 32.3814 170.028 31.6973C170.402 31.0132 170.915 30.4895 171.567 30.1261C172.23 29.7627 172.989 29.581 173.844 29.581C174.71 29.581 175.463 29.7627 176.105 30.1261C176.757 30.4788 177.254 30.9705 177.596 31.6011C177.948 32.2211 178.125 32.9158 178.125 33.6854ZM176.281 33.6373C176.302 33.0601 176.201 32.5791 175.976 32.1943C175.763 31.7989 175.463 31.5103 175.079 31.3286C174.704 31.1362 174.293 31.04 173.844 31.04C173.128 31.04 172.529 31.2591 172.048 31.6973C171.567 32.1355 171.305 32.7822 171.263 33.6373H176.281ZM179.633 27.1279C179.633 26.818 179.74 26.5614 179.954 26.3584C180.167 26.1553 180.451 26.0537 180.803 26.0537C181.156 26.0537 181.439 26.1553 181.653 26.3584C181.878 26.5614 181.99 26.818 181.99 27.1279C181.99 27.4379 181.878 27.6891 181.653 27.8815C181.439 28.0739 181.156 28.1701 180.803 28.1701C180.451 28.1701 180.167 28.0739 179.954 27.8815C179.74 27.6891 179.633 27.4379 179.633 27.1279ZM181.717 29.6932V38.5273H179.89V29.6932H181.717ZM185.757 31.4248C186.056 30.8476 186.484 30.3933 187.039 30.062C187.595 29.7199 188.237 29.5489 188.963 29.5489V31.537H188.418C187.617 31.537 186.97 31.7347 186.478 32.1302C185.997 32.515 185.757 33.1563 185.757 34.0542V38.5273H183.929V29.6932H185.757V31.4248ZM197.634 29.581C198.436 29.581 199.12 29.7787 199.686 30.1742C200.253 30.5697 200.653 31.0934 200.889 31.7454V29.6932H202.716V38.5273H200.889V36.4751C200.653 37.1271 200.253 37.6509 199.686 38.0463C199.12 38.4418 198.436 38.6396 197.634 38.6396C196.864 38.6396 196.175 38.4579 195.566 38.0944C194.967 37.731 194.497 37.2073 194.155 36.5232C193.813 35.8391 193.642 35.0322 193.642 34.1022C193.642 33.183 193.813 32.3814 194.155 31.6973C194.497 31.0132 194.967 30.4895 195.566 30.1261C196.175 29.7627 196.864 29.581 197.634 29.581ZM198.195 31.1843C197.383 31.1843 196.731 31.4461 196.239 31.9699C195.758 32.4829 195.518 33.1937 195.518 34.1022C195.518 35.0108 195.758 35.7269 196.239 36.2507C196.731 36.7637 197.383 37.0202 198.195 37.0202C198.708 37.0202 199.168 36.9027 199.574 36.6675C199.98 36.4217 200.301 36.0796 200.536 35.6414C200.771 35.2032 200.889 34.6901 200.889 34.1022C200.889 33.5251 200.771 33.0174 200.536 32.5791C200.301 32.1302 199.98 31.7882 199.574 31.553C199.168 31.3072 198.708 31.1843 198.195 31.1843ZM213.054 29.6932V38.5273H211.211V36.6034C210.986 37.2554 210.596 37.7631 210.04 38.1265C209.484 38.4792 208.838 38.6556 208.1 38.6556C207.074 38.6556 206.251 38.3243 205.631 37.6616C205.011 36.9989 204.701 36.0529 204.701 34.8237V29.6932H206.529V34.6313C206.529 35.433 206.732 36.0529 207.138 36.4912C207.544 36.9187 208.1 37.1325 208.806 37.1325C209.532 37.1325 210.115 36.8973 210.553 36.427C210.991 35.9567 211.211 35.2727 211.211 34.3748V29.6932H213.054ZM218.787 29.581C219.588 29.581 220.272 29.7787 220.839 30.1742C221.405 30.5697 221.801 31.0934 222.025 31.7454V26.663H223.869V38.5273H222.025V36.4751C221.801 37.1271 221.405 37.6509 220.839 38.0463C220.272 38.4418 219.588 38.6396 218.787 38.6396C218.017 38.6396 217.328 38.4579 216.718 38.0944C216.12 37.731 215.65 37.2073 215.308 36.5232C214.965 35.8391 214.794 35.0322 214.794 34.1022C214.794 33.183 214.965 32.3814 215.308 31.6973C215.65 31.0132 216.12 30.4895 216.718 30.1261C217.328 29.7627 218.017 29.581 218.787 29.581ZM219.348 31.1843C218.535 31.1843 217.883 31.4461 217.392 31.9699C216.911 32.4829 216.67 33.1937 216.67 34.1022C216.67 35.0108 216.911 35.7269 217.392 36.2507C217.883 36.7637 218.535 37.0202 219.348 37.0202C219.861 37.0202 220.32 36.9027 220.727 36.6675C221.133 36.4217 221.453 36.0796 221.689 35.6414C221.924 35.2032 222.041 34.6901 222.041 34.1022C222.041 33.5251 221.924 33.0174 221.689 32.5791C221.453 32.1302 221.133 31.7882 220.727 31.553C220.32 31.3072 219.861 31.1843 219.348 31.1843ZM225.806 27.1279C225.806 26.818 225.913 26.5614 226.127 26.3584C226.34 26.1553 226.624 26.0537 226.976 26.0537C227.329 26.0537 227.612 26.1553 227.826 26.3584C228.051 26.5614 228.163 26.818 228.163 27.1279C228.163 27.4379 228.051 27.6891 227.826 27.8815C227.612 28.0739 227.329 28.1701 226.976 28.1701C226.624 28.1701 226.34 28.0739 226.127 27.8815C225.913 27.6891 225.806 27.4379 225.806 27.1279ZM227.89 29.6932V38.5273H226.062V29.6932H227.89ZM238.311 33.6854C238.311 33.9847 238.289 34.2465 238.247 34.471H231.449C231.481 35.3795 231.732 36.0529 232.202 36.4912C232.673 36.9294 233.255 37.1485 233.95 37.1485C234.559 37.1485 235.072 36.9935 235.489 36.6835C235.917 36.3736 236.178 35.9621 236.275 35.449H238.231C238.113 36.069 237.867 36.6194 237.493 37.1004C237.119 37.5814 236.633 37.9608 236.034 38.2387C235.436 38.506 234.768 38.6396 234.03 38.6396C233.175 38.6396 232.416 38.4579 231.753 38.0944C231.101 37.731 230.588 37.2073 230.214 36.5232C229.84 35.8391 229.653 35.0322 229.653 34.1022C229.653 33.183 229.84 32.3814 230.214 31.6973C230.588 31.0132 231.101 30.4895 231.753 30.1261C232.416 29.7627 233.175 29.581 234.03 29.581C234.896 29.581 235.649 29.7627 236.291 30.1261C236.943 30.4788 237.44 30.9705 237.782 31.6011C238.134 32.2211 238.311 32.9158 238.311 33.6854ZM236.467 33.6373C236.488 33.0601 236.387 32.5791 236.162 32.1943C235.949 31.7989 235.649 31.5103 235.265 31.3286C234.891 31.1362 234.479 31.04 234.03 31.04C233.314 31.04 232.715 31.2591 232.234 31.6973C231.753 32.1355 231.492 32.7822 231.449 33.6373H236.467ZM245.014 29.5489C246.04 29.5489 246.863 29.8802 247.483 30.5429C248.103 31.2056 248.413 32.1516 248.413 33.3808V38.5273H246.585V33.5732C246.585 32.7822 246.382 32.173 245.976 31.7454C245.57 31.3072 245.014 31.0881 244.308 31.0881C243.581 31.0881 242.999 31.3232 242.561 31.7935C242.122 32.2531 241.903 32.9318 241.903 33.8297V38.5273H240.076V29.6932H241.903V31.6332C242.139 30.9705 242.534 30.4574 243.09 30.094C243.646 29.7306 244.287 29.5489 245.014 29.5489ZM254.478 29.581C255.622 29.581 256.568 29.8856 257.316 30.4948C258.064 31.0934 258.529 31.9111 258.711 32.9479H256.771C256.664 32.3921 256.402 31.9592 255.985 31.6492C255.579 31.3286 255.066 31.1682 254.446 31.1682C253.741 31.1682 253.153 31.4194 252.683 31.9218C252.212 32.4134 251.977 33.1403 251.977 34.1022C251.977 35.0642 252.212 35.7964 252.683 36.2988C253.153 36.8011 253.741 37.0523 254.446 37.0523C255.066 37.0523 255.579 36.892 255.985 36.5713C256.402 36.2507 256.664 35.8124 256.771 35.2566H258.711C258.529 36.2934 258.064 37.1164 257.316 37.7257C256.568 38.3349 255.622 38.6396 254.478 38.6396C253.623 38.6396 252.864 38.4579 252.202 38.0944C251.55 37.731 251.037 37.2073 250.662 36.5232C250.288 35.8391 250.101 35.0322 250.101 34.1022C250.101 33.183 250.288 32.3814 250.662 31.6973C251.037 31.0132 251.55 30.4895 252.202 30.1261C252.864 29.7627 253.623 29.581 254.478 29.581ZM268.686 33.6854C268.686 33.9847 268.664 34.2465 268.622 34.471H261.824C261.856 35.3795 262.107 36.0529 262.577 36.4912C263.047 36.9294 263.63 37.1485 264.325 37.1485C264.934 37.1485 265.447 36.9935 265.864 36.6835C266.291 36.3736 266.553 35.9621 266.65 35.449H268.606C268.488 36.069 268.242 36.6194 267.868 37.1004C267.494 37.5814 267.008 37.9608 266.409 38.2387C265.81 38.506 265.142 38.6396 264.405 38.6396C263.55 38.6396 262.791 38.4579 262.128 38.0944C261.476 37.731 260.963 37.2073 260.589 36.5232C260.215 35.8391 260.028 35.0322 260.028 34.1022C260.028 33.183 260.215 32.3814 260.589 31.6973C260.963 31.0132 261.476 30.4895 262.128 30.1261C262.791 29.7627 263.55 29.581 264.405 29.581C265.271 29.581 266.024 29.7627 266.666 30.1261C267.318 30.4788 267.815 30.9705 268.157 31.6011C268.509 32.2211 268.686 32.9158 268.686 33.6854ZM266.842 33.6373C266.863 33.0601 266.762 32.5791 266.537 32.1943C266.324 31.7989 266.024 31.5103 265.639 31.3286C265.265 31.1362 264.854 31.04 264.405 31.04C263.689 31.04 263.09 31.2591 262.609 31.6973C262.128 32.1355 261.866 32.7822 261.824 33.6373H266.842ZM275.196 36.5072V38.5273H273.128V36.5072H275.196ZM278.499 36.5072V38.5273H276.431V36.5072H278.499ZM271.893 36.5072V38.5273H269.825V36.5072H271.893ZM281.538 36.5072V38.5273H279.47V36.5072H281.538Z" fill="white"/>
</mask>
<g mask="url(#mask0_0_7505)">
</g>
</svg>
