<svg width="16" height="22" viewBox="0 0 16 22" fill="none" xmlns="http://www.w3.org/2000/svg">
<path fill-rule="evenodd" clip-rule="evenodd" d="M7.80959 9.93123C7.70635 9.92091 7.58247 9.92091 7.46891 9.93123C5.01191 9.84864 3.06076 7.83556 3.06076 5.35791C3.06076 2.82865 5.10482 0.774265 7.64441 0.774265C10.1737 0.774265 12.2281 2.82865 12.2281 5.35791C12.2177 7.83556 10.2666 9.84864 7.80959 9.93123Z" stroke="#060124" stroke-width="1.5" stroke-linecap="round" stroke-linejoin="round"/>
<path fill-rule="evenodd" clip-rule="evenodd" d="M2.64798 13.7411C0.149691 15.4135 0.149691 18.1389 2.64798 19.801C5.48695 21.7006 10.1429 21.7006 12.9818 19.801C15.4801 18.1286 15.4801 15.4032 12.9818 13.7411C10.1532 11.8519 5.49728 11.8519 2.64798 13.7411Z" stroke="#060124" stroke-width="1.5" stroke-linecap="round" stroke-linejoin="round"/>
</svg>
