<svg width="12" height="11" viewBox="0 0 12 11" fill="none" xmlns="http://www.w3.org/2000/svg">
<path fill-rule="evenodd" clip-rule="evenodd" d="M11.0623 8.43728C11.0623 8.17842 11.2721 7.96857 11.5309 7.96854C11.7898 7.96854 11.9997 8.17837 11.9997 8.43728C11.9997 9.47113 11.1586 10.3122 10.1247 10.3122H6.32098L6.31658 10.3122L6.31328 10.3122H1.87495C0.841099 10.3122 0 9.47113 0 8.43728V1.87495C0 0.841078 0.841099 0 1.87495 0H10.1247C11.1585 0 11.9996 0.841099 11.9996 1.87495V6.09215L11.9996 6.09959V6.0997L11.9995 6.1045L11.9995 6.10609L11.9994 6.1086C11.9973 6.17395 11.9819 6.23589 11.9558 6.29183C11.9304 6.34645 11.894 6.39688 11.847 6.43975L11.8459 6.44071L11.8448 6.44176C11.8229 6.46147 11.7992 6.47914 11.774 6.49449L11.7699 6.49688L11.7691 6.49737C11.7493 6.50907 11.7289 6.51917 11.7081 6.52768L11.703 6.52975L11.7027 6.52986L11.6979 6.53171L11.6972 6.53199L11.6929 6.53361L11.6916 6.53409L11.6876 6.53552L11.6862 6.53603L11.6823 6.53737L11.6807 6.53791L11.6772 6.53905L11.6751 6.53976L11.6716 6.54086L11.6697 6.54145L11.6663 6.5425L11.664 6.54318L11.6612 6.54397L11.6584 6.54479L11.6556 6.54554L11.6529 6.54626L11.65 6.54704L11.6474 6.54775L11.6445 6.54847L11.6418 6.54913L11.6387 6.54986L11.6363 6.55043L11.6328 6.55121L11.6307 6.55168L11.6269 6.55247L11.6251 6.55285L11.6207 6.55371L11.6195 6.55395C11.5864 6.56028 11.5528 6.563 11.5193 6.56215L11.5187 6.56213L11.5151 6.56202C11.45 6.55986 11.3883 6.54444 11.3326 6.51838C11.2783 6.49309 11.2281 6.45697 11.1855 6.41035L11.1837 6.40845L11.1833 6.4079C11.1784 6.4026 11.1738 6.39716 11.1692 6.39163L8.87083 3.64973L5.46904 7.9766L6.54678 9.37475H10.1248C10.6417 9.37475 11.0623 8.9542 11.0623 8.43728ZM0.937525 8.43729C0.937525 8.95421 1.35807 9.37476 1.875 9.37476H5.36315L3.28158 6.67436L2.62115 7.53293C2.46333 7.73812 2.16905 7.77651 1.96382 7.61866C1.75863 7.46081 1.72026 7.16651 1.87808 6.96132L2.90966 5.62029C2.99835 5.505 3.13553 5.43741 3.28097 5.43734H3.28121C3.42656 5.43734 3.56372 5.50476 3.65245 5.61991L4.87867 7.21069L8.49072 2.61645C8.57797 2.50545 8.71067 2.43969 8.85185 2.43749C8.99334 2.43535 9.12771 2.49683 9.21841 2.60506L11.0623 4.80473V1.87496C11.0623 1.35803 10.6417 0.937484 10.1248 0.937484H1.875C1.35807 0.937484 0.937525 1.35803 0.937525 1.87496V8.43729ZM1.8755 3.09345C1.8755 2.31807 2.50633 1.68725 3.28172 1.68725C4.05711 1.68725 4.68792 2.31807 4.68792 3.09345C4.68792 3.86884 4.05711 4.49967 3.28172 4.49967C2.50633 4.49967 1.8755 3.86884 1.8755 3.09345ZM2.81299 3.13878C2.81299 3.42224 3.04359 3.65284 3.32704 3.65284C3.61049 3.65284 3.8411 3.42224 3.8411 3.13878C3.8411 2.85533 3.61049 2.62472 3.32704 2.62472C3.04359 2.62472 2.81299 2.85533 2.81299 3.13878Z" fill="#060124"/>
</svg>
