<svg width="23" height="20" viewBox="0 0 23 20" fill="none" xmlns="http://www.w3.org/2000/svg">
<path fill-rule="evenodd" clip-rule="evenodd" d="M20.1997 3.0666H16.9077L16.5244 1.91663C16.1454 0.771335 15.0743 -0.00149016 13.8679 2.15743e-06H9.13157C7.92557 -0.000917763 6.85496 0.771754 6.47589 1.91663L6.0918 3.0666H2.79981C1.25422 3.06828 0.00169674 4.32082 0 5.8664V17.1362C0.00338326 18.6806 1.25542 19.9312 2.79981 19.9329H20.2028C21.7472 19.9295 22.9978 18.6775 22.9995 17.1331V5.86334C22.9961 4.31895 21.7441 3.06828 20.1997 3.0666H20.1997ZM21.4662 17.1331C21.4653 17.8322 20.8988 18.3988 20.1997 18.3996H2.7998C2.10068 18.3988 1.53414 17.8322 1.53329 17.1331V5.86334C1.53583 5.16542 2.10187 4.60074 2.7998 4.5999H6.64455C6.9744 4.59964 7.2671 4.38845 7.37134 4.07551L7.93023 2.39885C8.10236 1.88163 8.58646 1.53283 9.13158 1.5333H13.8679C14.4133 1.53271 14.8976 1.88194 15.0693 2.39962L15.6282 4.07552C15.7324 4.38846 16.0251 4.59966 16.355 4.59991H20.1997C20.8988 4.60076 21.4654 5.1673 21.4662 5.86641L21.4662 17.1331Z" fill="#888888"/>
<path fill-rule="evenodd" clip-rule="evenodd" d="M11.4994 5.3662C8.32382 5.3662 5.7495 7.94051 5.7495 11.1161C5.7495 14.2916 8.32381 16.866 11.4994 16.866C14.6749 16.866 17.2492 14.2917 17.2492 11.1161C17.2459 7.94192 14.6735 5.36958 11.4994 5.3662H11.4994ZM11.4994 15.3327C9.17063 15.3327 7.2828 13.4448 7.2828 11.1161C7.2828 8.78733 9.17063 6.8995 11.4994 6.8995C13.8281 6.8995 15.716 8.78733 15.716 11.1161C15.7134 13.4438 13.8271 15.3301 11.4994 15.3327Z" fill="#888888"/>
<path fill-rule="evenodd" clip-rule="evenodd" d="M19.4205 7.667C19.985 7.667 20.4427 7.20937 20.4427 6.64487C20.4427 6.08036 19.985 5.62273 19.4205 5.62273C18.856 5.62273 18.3984 6.08036 18.3984 6.64487C18.3984 7.20937 18.856 7.667 19.4205 7.667Z" fill="#888888"/>
</svg>
