<svg width="23" height="19" viewBox="0 0 23 19" fill="none" xmlns="http://www.w3.org/2000/svg">
<path d="M16.1111 17.9997V16.1108C16.1111 14.0244 14.4197 12.333 12.3333 12.333H4.77778C2.69137 12.333 1 14.0244 1 16.1108V17.9997" stroke="white" stroke-width="2" stroke-linecap="round" stroke-linejoin="round"/>
<path fill-rule="evenodd" clip-rule="evenodd" d="M8.55512 8.55556C10.6415 8.55556 12.3329 6.86419 12.3329 4.77778C12.3329 2.69137 10.6415 1 8.55512 1C6.46871 1 4.77734 2.69137 4.77734 4.77778C4.77734 6.86419 6.46871 8.55556 8.55512 8.55556Z" stroke="white" stroke-width="2" stroke-linecap="round" stroke-linejoin="round"/>
<path d="M21.7767 17.9999V16.1111C21.7754 14.3894 20.6103 12.8865 18.9434 12.4561" stroke="white" stroke-width="2" stroke-linecap="round" stroke-linejoin="round"/>
<path d="M15.168 1.12305C16.8396 1.55104 18.0087 3.05726 18.0087 4.78277C18.0087 6.50828 16.8396 8.0145 15.168 8.44249" stroke="white" stroke-width="2" stroke-linecap="round" stroke-linejoin="round"/>
</svg>
