<svg width="127" height="127" viewBox="0 0 127 127" fill="none" xmlns="http://www.w3.org/2000/svg">
<path fill-rule="evenodd" clip-rule="evenodd" d="M2.82222 0H124.178C125.736 0 127 1.26355 127 2.82222V124.178C127 125.736 125.736 127 124.178 127H2.82222C1.26355 127 0 125.736 0 124.178V2.82222C0 1.26355 1.26355 0 2.82222 0Z" fill="#EEEEEE"/>
<path fill-rule="evenodd" clip-rule="evenodd" d="M92.1389 77.8683C90.8111 77.8683 89.7348 78.9446 89.7348 80.2723C89.7348 82.9235 87.578 85.0804 84.9268 85.0804H66.5763L61.0489 77.9097L78.4957 55.7184L90.2833 69.7808C90.3068 69.8092 90.3308 69.8371 90.3554 69.8643C90.3563 69.8652 90.3571 69.8662 90.358 69.8671C90.3609 69.8704 90.3639 69.8736 90.3669 69.8769C90.5857 70.116 90.843 70.3012 91.1212 70.4309C91.4071 70.5645 91.7237 70.6436 92.0574 70.6547C92.0635 70.6549 92.0696 70.6552 92.0757 70.6553C92.0768 70.6553 92.0779 70.6553 92.0789 70.6554C92.2506 70.6597 92.423 70.6458 92.5928 70.6133L92.5992 70.6121C92.6067 70.6107 92.6141 70.6093 92.6217 70.6077C92.6247 70.6071 92.6278 70.6064 92.631 70.6058C92.6374 70.6044 92.6439 70.6031 92.6504 70.6017C92.654 70.6008 92.6576 70.6001 92.6613 70.5993C92.6671 70.598 92.673 70.5966 92.6789 70.5953C92.6831 70.5944 92.6873 70.5934 92.6914 70.5923C92.6967 70.5911 92.702 70.5898 92.7073 70.5886C92.7118 70.5875 92.7163 70.5863 92.7209 70.5852C92.7258 70.584 92.7308 70.5827 92.7358 70.5815C92.7403 70.5803 92.7448 70.5791 92.7494 70.5779C92.7544 70.5766 92.7593 70.5752 92.7644 70.5739C92.769 70.5727 92.7735 70.5714 92.7781 70.5702L92.7921 70.5663C92.7971 70.5649 92.802 70.5635 92.8069 70.5621C92.8117 70.5608 92.8164 70.5594 92.8211 70.5581C92.825 70.557 92.8288 70.5558 92.8328 70.5546C92.8387 70.5528 92.8447 70.551 92.8504 70.5492C92.8537 70.5482 92.8569 70.5471 92.8601 70.5462C92.8661 70.5443 92.872 70.5424 92.878 70.5405C92.8816 70.5393 92.8852 70.5381 92.8888 70.5369C92.8947 70.535 92.9007 70.5329 92.9066 70.531C92.9093 70.53 92.9121 70.5291 92.9149 70.5282C92.9215 70.5259 92.9282 70.5237 92.9348 70.5214C92.9373 70.5205 92.9399 70.5196 92.9424 70.5187C92.9492 70.5163 92.956 70.5139 92.9627 70.5114C92.9649 70.5106 92.967 70.5098 92.9692 70.509C92.9767 70.5062 92.984 70.5036 92.9913 70.5007L92.995 70.4993C93.0032 70.4961 93.0114 70.493 93.0196 70.4898C93.02 70.4897 93.0205 70.4894 93.021 70.4892C93.0298 70.4857 93.0386 70.4822 93.0473 70.4786C93.1542 70.435 93.2588 70.3832 93.3602 70.3232C93.3616 70.3223 93.3631 70.3215 93.3645 70.3206C93.3714 70.3165 93.3783 70.3125 93.3851 70.3084C93.5147 70.2297 93.6362 70.139 93.7482 70.0379C93.7503 70.0361 93.7522 70.0343 93.7542 70.0325C93.756 70.0309 93.7578 70.0292 93.7596 70.0276C94.0006 69.8078 94.1873 69.5491 94.3177 69.269C94.4518 68.9821 94.5308 68.6644 94.5414 68.3293C94.5415 68.325 94.5417 68.3207 94.5418 68.3164C94.5418 68.3137 94.5419 68.3109 94.5419 68.3083C94.542 68.3001 94.5423 68.2918 94.5424 68.2836C94.5424 68.2834 94.5424 68.2833 94.5424 68.283C94.5425 68.2704 94.5425 68.2576 94.5425 68.2449V46.6161C94.5425 41.3138 90.2287 37 84.9264 37H42.6161C37.3138 37 33 41.3136 33 46.6161V80.2723C33 85.5746 37.3138 89.8884 42.6161 89.8884H65.379C65.3847 89.8884 65.3903 89.8885 65.396 89.8885C65.4035 89.8885 65.411 89.8885 65.4185 89.8884H84.9268C90.2291 89.8884 94.5429 85.5746 94.5429 80.2723C94.5429 78.9445 93.4666 77.8683 92.1389 77.8683L92.1389 77.8683ZM42.6161 85.0804C39.9649 85.0804 37.808 82.9235 37.808 80.2723V46.6161C37.808 43.9649 39.9649 41.808 42.6161 41.808H84.9268C87.578 41.808 89.7348 43.9649 89.7348 46.6161V61.642L80.2783 50.3606C79.8131 49.8055 79.124 49.4902 78.3983 49.5011C77.6742 49.5124 76.9937 49.8497 76.5462 50.419L58.021 73.9815L51.7321 65.8228C51.277 65.2323 50.5736 64.8865 49.8281 64.8865H49.8269C49.081 64.8868 48.3774 65.2335 47.9226 65.8248L42.632 72.7025C41.8225 73.7549 42.0193 75.2643 43.0716 76.0738C44.1243 76.8834 45.6335 76.6865 46.4429 75.6341L49.8301 71.2308L60.5058 85.0804L42.6161 85.0804Z" fill="#888888"/>
<path fill-rule="evenodd" clip-rule="evenodd" d="M49.8283 45.6538C45.8515 45.6538 42.6162 48.8891 42.6162 52.8659C42.6162 56.8426 45.8515 60.0779 49.8283 60.0779C53.805 60.0779 57.0403 56.8426 57.0403 52.8659C57.0403 48.8891 53.805 45.6538 49.8283 45.6538ZM49.8278 55.27C48.5023 55.27 47.4238 54.1915 47.4238 52.8659C47.4238 51.5404 48.5023 50.4619 49.8278 50.4619C51.1534 50.4619 52.2319 51.5404 52.2319 52.8659C52.2319 54.1915 51.1534 55.27 49.8278 55.27Z" fill="#888888"/>
</svg>
